<?xml version="1.0" encoding="utf-8"?>
<!-- Generator: Adobe Illustrator 27.5.0, SVG Export Plug-In . SVG Version: 6.00 Build 0)  -->
<svg version="1.1" xmlns="http://www.w3.org/2000/svg" xmlns:xlink="http://www.w3.org/1999/xlink" x="0px" y="0px"
	 viewBox="0 0 500 500" style="enable-background:new 0 0 500 500;" xml:space="preserve">
<g id="BACKGROUND">
	<rect style="fill-rule:evenodd;clip-rule:evenodd;fill:#FFFFFF;" width="500" height="500"/>
</g>
<g id="OBJECTS">
	<g>
		<g>
			<g>
				<g>
					<path style="fill-rule:evenodd;clip-rule:evenodd;fill:#4F8467;" d="M119.282,399.719c0.492,0,0.98,0.02,1.464,0.058
						c-0.048-0.663-0.073-1.331-0.073-2.005c0-15.209,12.331-27.54,27.54-27.54c13.057,0,23.99,9.088,26.823,21.282
						c3.073-2.522,7.003-4.034,11.286-4.034c8.034,0,14.824,5.322,17.039,12.633c1.234-0.258,2.514-0.393,3.824-0.393
						c10.293,0,18.639,8.345,18.639,18.638c0,10.293-8.346,18.637-18.639,18.637h-86.513v-0.052
						c-0.459,0.034-0.923,0.052-1.391,0.052c-10.293,0-18.638-8.344-18.638-18.637C100.645,408.064,108.989,399.719,119.282,399.719
						z"/>
					<path style="fill-rule:evenodd;clip-rule:evenodd;fill:#4A7567;" d="M139.009,408.065c0.323,0,0.644,0.013,0.96,0.037
						c-0.03-0.434-0.048-0.872-0.048-1.314c0-9.98,8.091-18.071,18.071-18.071c8.568,0,15.743,5.963,17.602,13.965
						c2.016-1.654,4.596-2.647,7.406-2.647c5.271,0,9.727,3.493,11.182,8.29c0.809-0.17,1.648-0.259,2.508-0.259
						c6.755,0,12.229,5.476,12.229,12.229c0,6.755-5.475,12.23-12.229,12.23h-56.769v-0.034c-0.301,0.021-0.605,0.034-0.912,0.034
						c-6.755,0-12.229-5.476-12.229-12.23C126.779,413.541,132.254,408.065,139.009,408.065z"/>
					<g>
						<path style="fill-rule:evenodd;clip-rule:evenodd;fill:#9FBB9E;" d="M124.59,411.921c0.496,0,0.901-1.103,0.901-2.457
							c0-1.353-0.405-2.457-0.901-2.457c-0.496,0-0.9,1.104-0.9,2.457C123.689,410.817,124.094,411.921,124.59,411.921z"/>
						<path style="fill-rule:evenodd;clip-rule:evenodd;fill:#9FBB9E;" d="M120.577,407.665c0.43-0.248,1.329,0.503,2.009,1.678
							c0.678,1.175,0.879,2.329,0.447,2.578c-0.431,0.249-1.33-0.502-2.009-1.677C120.347,409.068,120.146,407.914,120.577,407.665z
							"/>
						<path style="fill-rule:evenodd;clip-rule:evenodd;fill:#9FBB9E;" d="M128.524,407.665c-0.431-0.248-1.33,0.503-2.009,1.678
							c-0.678,1.175-0.879,2.329-0.448,2.578c0.432,0.249,1.331-0.502,2.009-1.677C128.755,409.068,128.955,407.914,128.524,407.665
							z"/>
					</g>
				</g>
				<g>
					<g>
						<path style="fill-rule:evenodd;clip-rule:evenodd;fill:#4F8467;" d="M270.088,402.932c0.391,0,0.775,0.016,1.156,0.045
							c-0.037-0.522-0.057-1.05-0.057-1.582c0-12.007,9.732-21.739,21.738-21.739c10.307,0,18.939,7.172,21.176,16.799
							c2.426-1.99,5.527-3.185,8.908-3.185c6.342,0,11.703,4.201,13.451,9.972c0.975-0.202,1.984-0.31,3.02-0.31
							c8.125,0,14.711,6.587,14.711,14.712c0,8.126-6.586,14.713-14.711,14.713h-68.293v-0.04c-0.363,0.026-0.73,0.04-1.1,0.04
							c-8.125,0-14.711-6.587-14.711-14.713C255.377,409.519,261.963,402.932,270.088,402.932z"/>
						<path style="fill-rule:evenodd;clip-rule:evenodd;fill:#4A7567;" d="M277.855,412.074c0.27,0,0.537,0.011,0.803,0.031
							c-0.027-0.363-0.041-0.729-0.041-1.1c0-8.345,6.764-15.109,15.109-15.109c7.164,0,13.162,4.985,14.719,11.676
							c1.684-1.383,3.84-2.213,6.19-2.213c4.41,0,8.135,2.919,9.35,6.931c0.678-0.141,1.379-0.216,2.098-0.216
							c5.648,0,10.227,4.578,10.227,10.226s-4.578,10.226-10.227,10.226h-47.465v-0.028c-0.252,0.017-0.506,0.028-0.762,0.028
							c-5.648,0-10.227-4.578-10.227-10.226S272.207,412.074,277.855,412.074z"/>
						<g>
							<path style="fill-rule:evenodd;clip-rule:evenodd;fill:#9FBB9E;" d="M302.703,411.921c0.496,0,0.9-1.103,0.9-2.457
								c0-1.353-0.404-2.457-0.9-2.457s-0.9,1.104-0.9,2.457C301.803,410.817,302.207,411.921,302.703,411.921z"/>
							<path style="fill-rule:evenodd;clip-rule:evenodd;fill:#9FBB9E;" d="M298.689,407.665c0.432-0.248,1.33,0.503,2.01,1.678
								c0.678,1.175,0.879,2.329,0.447,2.578c-0.432,0.249-1.33-0.502-2.008-1.677C298.461,409.068,298.26,407.914,298.689,407.665z
								"/>
							<path style="fill-rule:evenodd;clip-rule:evenodd;fill:#9FBB9E;" d="M306.639,407.665c-0.432-0.248-1.33,0.503-2.01,1.678
								c-0.678,1.175-0.879,2.329-0.447,2.578c0.43,0.249,1.33-0.502,2.008-1.677C306.867,409.068,307.068,407.914,306.639,407.665z
								"/>
						</g>
					</g>
					<g>
						<path style="fill-rule:evenodd;clip-rule:evenodd;fill:#467C66;" d="M404.031,413.438c-0.252,0-0.498,0.009-0.744,0.028
							c0.023-0.336,0.037-0.675,0.037-1.018c0-7.72-6.258-13.978-13.978-13.978c-6.627,0-12.176,4.611-13.615,10.801
							c-1.559-1.279-3.553-2.048-5.727-2.048c-4.078,0-7.525,2.702-8.65,6.413c-0.625-0.131-1.275-0.199-1.939-0.199
							c-5.225,0-9.461,4.234-9.461,9.459c0,5.226,4.236,9.46,9.461,9.46h43.91v-0.026c0.234,0.018,0.469,0.026,0.707,0.026
							c5.225,0,9.459-4.234,9.459-9.46C413.49,417.672,409.256,413.438,404.031,413.438z"/>
						<g>
							<path style="fill-rule:evenodd;clip-rule:evenodd;fill:#9FBB9E;" d="M392.271,418.074c0.496,0,0.902-1.103,0.902-2.456
								c0-1.354-0.406-2.458-0.902-2.458s-0.9,1.104-0.9,2.458C391.371,416.971,391.775,418.074,392.271,418.074z"/>
							<path style="fill-rule:evenodd;clip-rule:evenodd;fill:#9FBB9E;" d="M388.26,413.819c0.43-0.249,1.33,0.502,2.008,1.677
								c0.68,1.176,0.879,2.329,0.449,2.578c-0.432,0.25-1.33-0.501-2.008-1.677C388.029,415.222,387.828,414.067,388.26,413.819z"
								/>
							<path style="fill-rule:evenodd;clip-rule:evenodd;fill:#9FBB9E;" d="M396.207,413.819c-0.432-0.249-1.33,0.502-2.008,1.677
								c-0.68,1.176-0.879,2.329-0.449,2.578c0.432,0.25,1.33-0.501,2.01-1.677C396.438,415.222,396.639,414.067,396.207,413.819z"
								/>
						</g>
					</g>
				</g>
			</g>
			<g>
				<path style="fill-rule:evenodd;clip-rule:evenodd;fill:#5B9065;" d="M31.123,438.059h108.119c2.396,0,4.357,1.961,4.357,4.357
					c0,2.398-1.961,4.359-4.357,4.359h-21.561c-3.491,0-6.347,2.855-6.347,6.346l0,0c0,3.49,2.855,6.347,6.347,6.347h264.637
					c3.49,0,6.348-2.857,6.348-6.347l0,0c0-3.49-2.857-6.346-6.348-6.346h-93.684c-2.397,0-4.359-1.962-4.359-4.359
					c0-2.396,1.963-4.357,4.359-4.357h180.242c3.49,0,6.346-2.855,6.346-6.346l0,0c0-3.491-2.855-6.347-6.346-6.347H31.123
					c-3.49,0-6.346,2.855-6.346,6.347l0,0C24.777,435.203,27.633,438.059,31.123,438.059z"/>
				<g>
					<g>
						<path style="fill-rule:evenodd;clip-rule:evenodd;fill:#86AA88;" d="M164.265,453.761c0.496,0,0.901-1.104,0.901-2.457
							c0-1.354-0.405-2.457-0.901-2.457c-0.497,0-0.9,1.103-0.9,2.457C163.364,452.656,163.768,453.761,164.265,453.761z"/>
						<path style="fill-rule:evenodd;clip-rule:evenodd;fill:#86AA88;" d="M160.252,449.505c0.43-0.249,1.329,0.502,2.009,1.678
							c0.678,1.176,0.879,2.329,0.447,2.578c-0.431,0.249-1.33-0.502-2.009-1.678C160.021,450.907,159.82,449.753,160.252,449.505z"
							/>
						<path style="fill-rule:evenodd;clip-rule:evenodd;fill:#86AA88;" d="M168.2,449.505c-0.432-0.249-1.331,0.502-2.009,1.678
							c-0.679,1.176-0.88,2.329-0.449,2.578c0.432,0.249,1.331-0.502,2.009-1.678C168.431,450.907,168.63,449.753,168.2,449.505z"/>
					</g>
					<g>
						<path style="fill-rule:evenodd;clip-rule:evenodd;fill:#86AA88;" d="M215.526,434.484c0.497,0,0.9-1.104,0.9-2.457
							c0-1.354-0.403-2.457-0.9-2.457c-0.496,0-0.901,1.103-0.901,2.457C214.625,433.381,215.03,434.484,215.526,434.484z"/>
						<path style="fill-rule:evenodd;clip-rule:evenodd;fill:#86AA88;" d="M211.513,430.228c0.432-0.248,1.331,0.502,2.009,1.678
							c0.68,1.175,0.881,2.329,0.449,2.578c-0.432,0.249-1.331-0.503-2.009-1.677C211.283,431.632,211.083,430.478,211.513,430.228z
							"/>
						<path style="fill-rule:evenodd;clip-rule:evenodd;fill:#86AA88;" d="M219.461,430.228c-0.431-0.248-1.33,0.502-2.008,1.678
							c-0.679,1.175-0.88,2.329-0.448,2.578c0.43,0.249,1.329-0.503,2.009-1.677C219.691,431.632,219.893,430.478,219.461,430.228z"
							/>
					</g>
					<g>
						<path style="fill-rule:evenodd;clip-rule:evenodd;fill:#86AA88;" d="M271.252,442.348c0.494,0,0.9-1.104,0.9-2.457
							c0-1.354-0.406-2.457-0.9-2.457c-0.496,0-0.902,1.103-0.902,2.457C270.35,441.244,270.756,442.348,271.252,442.348z"/>
						<path style="fill-rule:evenodd;clip-rule:evenodd;fill:#86AA88;" d="M267.238,438.092c0.432-0.249,1.33,0.502,2.008,1.677
							c0.68,1.176,0.879,2.33,0.449,2.579c-0.432,0.248-1.33-0.503-2.01-1.678C267.008,439.495,266.807,438.341,267.238,438.092z"/>
						<path style="fill-rule:evenodd;clip-rule:evenodd;fill:#86AA88;" d="M275.185,438.092c-0.43-0.249-1.33,0.502-2.008,1.677
							c-0.678,1.176-0.879,2.33-0.447,2.579c0.43,0.248,1.328-0.503,2.008-1.678C275.416,439.495,275.617,438.341,275.185,438.092z"
							/>
					</g>
					<g>
						<path style="fill-rule:evenodd;clip-rule:evenodd;fill:#86AA88;" d="M77.069,433.117c0.497,0,0.901-1.103,0.901-2.458
							c0-1.353-0.404-2.456-0.901-2.456c-0.496,0-0.9,1.104-0.9,2.456C76.169,432.014,76.573,433.117,77.069,433.117z"/>
						<path style="fill-rule:evenodd;clip-rule:evenodd;fill:#86AA88;" d="M73.057,428.86c0.431-0.247,1.33,0.503,2.01,1.679
							c0.678,1.175,0.879,2.329,0.447,2.578c-0.431,0.248-1.33-0.503-2.009-1.677C72.826,430.265,72.626,429.11,73.057,428.86z"/>
						<path style="fill-rule:evenodd;clip-rule:evenodd;fill:#86AA88;" d="M81.005,428.86c-0.431-0.247-1.33,0.503-2.009,1.679
							c-0.678,1.175-0.879,2.329-0.448,2.578c0.432,0.248,1.331-0.503,2.009-1.677C81.235,430.265,81.436,429.11,81.005,428.86z"/>
					</g>
					<g>
						<path style="fill-rule:evenodd;clip-rule:evenodd;fill:#86AA88;" d="M451.758,432.774c0.496,0,0.9-1.103,0.9-2.456
							c0-1.354-0.404-2.458-0.9-2.458s-0.902,1.103-0.902,2.458C450.855,431.672,451.262,432.774,451.758,432.774z"/>
						<path style="fill-rule:evenodd;clip-rule:evenodd;fill:#86AA88;" d="M447.744,428.52c0.432-0.249,1.33,0.502,2.008,1.677
							c0.68,1.176,0.881,2.33,0.449,2.578c-0.432,0.249-1.33-0.502-2.008-1.677C447.514,429.923,447.314,428.769,447.744,428.52z"/>
						<path style="fill-rule:evenodd;clip-rule:evenodd;fill:#86AA88;" d="M455.691,428.52c-0.43-0.249-1.328,0.502-2.008,1.677
							c-0.678,1.176-0.879,2.33-0.447,2.578c0.43,0.249,1.33-0.502,2.008-1.677C455.922,429.923,456.123,428.769,455.691,428.52z"/>
					</g>
				</g>
			</g>
		</g>
		<g>
			<g>
				<path style="fill-rule:evenodd;clip-rule:evenodd;fill:#D98C80;" d="M349.965,278.201l10.213,14.418
					c5.6,1.357,16.998,5.036,22.719,5.706c0,0,2.613-1.662,3.172-1.863c0.559-0.201,2.734-0.706,2.734-0.706
					c2.93,0.101,0.078,1.636-1.199,2.963c8.885,1.979,8.125,4.032,3.707,4.79c-9.055,1.551-34.998-0.31-38.648-5.145
					c-2.67-3.538-12.273-20.264-12.273-20.264L349.965,278.201z"/>
				<path style="fill-rule:evenodd;clip-rule:evenodd;fill:#381F4C;" d="M322.508,231.088c-3.279,2.524-2.393,5.315-0.268,10.895
					c2.127,5.581,4.254,9.212,4.254,9.212s1.682-15.235,1.15-16.033C327.113,234.365,324.898,230.291,322.508,231.088z"/>
				<path style="fill-rule:evenodd;clip-rule:evenodd;fill:#F1CC1F;" d="M335.703,257.567c10.807,8.857,18.07,24.27,18.07,24.27
					l-8.68,9.566C345.094,291.404,335.525,267.311,335.703,257.567z"/>
				<path style="fill-rule:evenodd;clip-rule:evenodd;fill:#D98C80;" d="M318.963,411.637c-0.758,9.3-0.758,9.3-0.758,9.3h-4.961
					l-0.793-9.654L318.963,411.637z"/>
				<path style="fill-rule:evenodd;clip-rule:evenodd;fill:#D98C80;" d="M338.721,411.637c-0.232,9.3-0.232,9.3-0.232,9.3h4.961
					l1.822-9.654L338.721,411.637z"/>
				<path style="fill-rule:evenodd;clip-rule:evenodd;fill:#381F4C;" d="M337.957,419.52c0,5.847,0,5.847,0,5.847h16.742
					l-10.717-5.847H337.957z"/>
				<path style="fill-rule:evenodd;clip-rule:evenodd;fill:#381F4C;" d="M312.801,419.52c0,5.847,0,5.847,0,5.847h16.742
					l-10.719-5.847H312.801z"/>
				<path style="fill-rule:evenodd;clip-rule:evenodd;fill:#381F4C;" d="M315.035,324.107l-0.6,46.801l-5.99,44.4l12.117-0.638
					l14.527-70.581l3.799,31.152l-2.17,39.429l10.205,0.85l6.166-41.668l-0.85-51.234C352.24,322.618,325.24,319.43,315.035,324.107
					z"/>
				<path style="fill-rule:evenodd;clip-rule:evenodd;fill:#EBEBEB;" d="M313.971,294.77c0.297,8.84-0.348,23.409-0.17,23.549
					c8.912,7.027,27.852,7.758,37.418-0.097c0.219-0.18-3.445-24.277-3.445-28.98c0-24.419-10.941-33.076-18.289-33.465
					C320.256,255.291,312.938,263.917,313.971,294.77z"/>
				<path style="fill-rule:evenodd;clip-rule:evenodd;fill:#D18074;" d="M325.096,243.852c0.744,12.756,0.744,12.756,0.744,12.756
					s-0.531,5.952,4.783,7.759c5.316,1.809,3.19-6.483,3.19-6.483l-0.213-5.952C333.6,251.932,329.986,240.558,325.096,243.852z"/>
				<path style="fill-rule:evenodd;clip-rule:evenodd;fill:#D98C80;" d="M325.148,240.345c-1.703-1.803-3.506,1.592-1.607,2.927
					c0.75,0.528,1.768,0.528,1.768,0.528s0.32,4.093,5.209,6.856c4.889,2.764,9.566,0.85,9.779-6.591
					c0.213-7.44,0.744-12.011,0.744-12.011l-12.438-0.744C328.603,231.31,327.967,237.05,325.148,240.345z"/>
				<path style="fill-rule:evenodd;clip-rule:evenodd;fill:#381F4C;" d="M325.266,243.179c2.205-3.591,5.211-5.92,3.676-8.991
					c0,0,3.189,0.399,3.853-0.487c0.664-0.886,0.709-1.196,0.709-1.196c1.814,0.818,5.289,1.585,7.826,0.965
					c11.51-2.816-9.385-12.766-14.896-4.162c-0.313,0.486-1.565-0.724-1.459-0.232c-1.092-0.749-2.012-1.044-1.266-0.224
					c0.746,0.82-0.049,0.023-0.049,0.023s-2.393,0.133-2.26,1.107c0.049,0.347,0.77,0.514,1.602,0.533
					c-0.904,0.642-1.877,1.636-1.877,2.943c0,1.017,2.482,2.821,3.34,4.67C325.25,239.823,324.732,244.047,325.266,243.179z"/>
				<path style="fill-rule:evenodd;clip-rule:evenodd;fill:#381F4C;" d="M341.982,238.159c-0.09-0.084-0.209-0.136-0.342-0.136
					H325.43c-0.277,0-0.502,0.224-0.502,0.501c0,0.278,0.225,0.503,0.502,0.503h5.088c0.135,0.831,0.59,2.817,1.865,3.169
					c0.266,0.073,0.549,0.124,0.834,0.137c0.541,0.023,1.09-0.085,1.57-0.418c0.467-0.326,0.857-0.857,1.082-1.674
					c0.096-0.347,0.162-0.751,0.193-1.214h0.613c0.029,0.463,0.096,0.867,0.193,1.214c0.225,0.816,0.613,1.347,1.082,1.674
					c0.478,0.333,1.027,0.442,1.568,0.418c0.285-0.013,0.568-0.064,0.836-0.137c1.617-0.447,1.914-3.525,1.914-3.534
					C342.291,238.444,342.17,238.246,341.982,238.159z"/>
				<path style="fill-rule:evenodd;clip-rule:evenodd;fill:#D98C80;" d="M309.744,278.201l-10.213,14.418
					c-5.598,1.357-16.998,5.036-22.717,5.706c0,0-2.613-1.662-3.174-1.863c-0.559-0.201-2.734-0.706-2.734-0.706
					c-2.93,0.101-0.078,1.636,1.199,2.963c-8.885,1.979-8.125,4.032-3.707,4.79c9.055,1.551,34.998-0.31,38.648-5.145
					c2.67-3.538,12.275-20.264,12.275-20.264L309.744,278.201z"/>
				<path style="fill-rule:evenodd;clip-rule:evenodd;fill:#F1CC1F;" d="M324.006,257.567c-10.807,8.857-18.068,24.27-18.068,24.27
					l8.68,9.566C314.617,291.404,324.184,267.311,324.006,257.567z"/>
				<g>
					<path style="fill-rule:evenodd;clip-rule:evenodd;fill:#381F4C;" d="M332.049,265.783c7.563,37.814,7.563,37.814,7.563,37.814
						l-2.836,5.673l-5.908-6.145L332.049,265.783z"/>
					<polygon style="fill-rule:evenodd;clip-rule:evenodd;fill:#381F4C;" points="334.689,266.983 332.469,270.912 329.533,267.537 
						331.752,265.048 					"/>
				</g>
				<path style="fill-rule:evenodd;clip-rule:evenodd;fill:#2C3B5B;" d="M379.135,296.449c-0.205,9.025-0.205,9.025-0.205,9.025
					s-25.025-3.486-26.869-5.333c-1.848-1.847-3.693-7.385-3.693-7.385l6.563,36.717l-10.459,5.948l-4.926-48.167l-5.332-30.394
					c0,0,8.82,4.718,11.897,11.076c3.078,6.358,13.949,24.204,13.949,24.204L379.135,296.449z"/>
				<path style="fill-rule:evenodd;clip-rule:evenodd;fill:#2C3B5B;" d="M325.803,254.605c-1.436,8.41-0.205,81.843-0.205,81.843
					l-15.383-6.769l3.076-38.563c0,0-4.512,10.667-8.41,11.692c-3.896,1.024-27.691,1.845-27.691,1.845l-1.23-6.768l22.769-5.948
					C298.728,291.936,312.266,260.348,325.803,254.605z"/>
				<path style="fill-rule:evenodd;clip-rule:evenodd;fill:#381F4C;" d="M320.713,237.092c-2.668-7.589,1.947-9.897,2.871-9.692
					c0.924,0.205-3.025-2.461-1.281-2.307c1.742,0.154,2.051,1.128,2.051,1.128s2.152-3.283,2.77-2.411
					c0.615,0.872-1.129,1.949-1.129,1.949s11.539-6.461,14.358-2.923c2.82,3.539-10.922,9.128-11.691,9.487
					C327.891,232.683,323.482,241.502,320.713,237.092z"/>
			</g>
			<g>
				<path style="fill-rule:evenodd;clip-rule:evenodd;fill:#381F4C;" d="M157.898,234.835c1.333,3.796-2.768,6.872-4.615,9.437
					c-1.847,2.564,0,7.383,0.308,9.845c0.308,2.462-2.153,3.691-4.205,7.692c-2.051,3.999-6.975,19.588,24.512,18.461
					c31.486-1.128,24.102-16.308,17.436-20.308c-6.666-3.999-0.41-7.384-4-11.999c-3.59-4.616-10.051-6.359-8.922-10.462
					C179.538,233.4,157.898,234.835,157.898,234.835z"/>
				<path style="fill-rule:evenodd;clip-rule:evenodd;fill:#D98C80;" d="M149.682,280.846l-6.732,10.186
					c-3.678-4.435-8.887-10.923-12-15.77c0,0,0.347-3.077,0.282-3.668c-0.065-0.59-0.567-2.766-0.567-2.766
					c-1.376-2.589-1.504,0.646-2.135,2.376c-5.679-7.113-7.19-5.529-5.932-1.229c2.581,8.817,15.821,31.68,21.769,32.837
					c4.351,0.847,12.225-18.336,12.225-18.336L149.682,280.846z"/>
				<path style="fill-rule:evenodd;clip-rule:evenodd;fill:#D98C80;" d="M189.789,411.637c0.231,9.3,0.231,9.3,0.231,9.3h-4.96
					l-1.822-9.654L189.789,411.637z"/>
				<path style="fill-rule:evenodd;clip-rule:evenodd;fill:#381F4C;" d="M190.552,419.52c0,5.847,0,5.847,0,5.847h-16.741
					l10.718-5.847H190.552z"/>
				<path style="fill-rule:evenodd;clip-rule:evenodd;fill:#381F4C;" d="M160.795,229.656c-10.095,12.47,4.68,21.455,4.96,17.804
					c0.088-1.151,0.442-19.132,0.442-19.132L160.795,229.656z"/>
				<path style="fill-rule:evenodd;clip-rule:evenodd;fill:#381F4C;" d="M178.923,228.789c6.666,4.143,2.326,9.429,2.171,14.288
					c-0.155,4.857,4.496,7.429,4.496,7.429s-6.668,6.286-15.348,5.143c-8.681-1.143-9.997-5.594-9.997-5.594
					s5.036-2.263,5.036-11.836C165.281,228.645,172.567,225.646,178.923,228.789z"/>
				<path style="fill-rule:evenodd;clip-rule:evenodd;fill:#D98C80;" d="M162.688,411.637c0.232,9.3,0.232,9.3,0.232,9.3h-4.959
					l-1.822-9.654L162.688,411.637z"/>
				<path style="fill-rule:evenodd;clip-rule:evenodd;fill:#381F4C;" d="M163.452,419.52c0,5.847,0,5.847,0,5.847H146.71
					l10.719-5.847H163.452z"/>
				<path style="fill-rule:evenodd;clip-rule:evenodd;fill:#381F4C;" d="M186.374,324.107c2.765,29.337,4.515,49.444,4.7,51.189
					c0.648,6.09,1.899,31.491,2.332,39.375l-10.203,0.851l-6.166-40.439l-8.946-32.056l-4.338,36.318l0.938,35.325l-10.204,0.851
					l-4.934-37.566l0.439-55.337C149.991,322.618,176.17,319.43,186.374,324.107z"/>
				<path style="fill-rule:evenodd;clip-rule:evenodd;fill:#EABC4E;" d="M187.438,294.77c-0.296,8.84,1.99,34.486,1.813,34.625
					c-8.913,7.026-31.134,7.349-40.7-0.507c-0.219-0.18,5.086-34.943,5.086-39.646c0-24.419,10.943-33.076,18.289-33.465
					C181.152,255.291,188.474,263.917,187.438,294.77z"/>
				<path style="fill-rule:evenodd;clip-rule:evenodd;fill:#D18074;" d="M176.313,243.852c-0.744,12.756-0.744,12.756-0.744,12.756
					s0.531,5.952-4.783,7.759c-5.314,1.809-3.189-6.483-3.189-6.483l0.213-5.952C167.81,251.932,171.424,240.558,176.313,243.852z"
					/>
				<path style="fill-rule:evenodd;clip-rule:evenodd;fill:#D98C80;" d="M176.261,240.345c1.703-1.803,3.507,1.592,1.607,2.927
					c-0.75,0.528-1.767,0.528-1.767,0.528s-0.32,4.093-5.21,6.856c-4.89,2.764-9.566,0.85-9.779-6.591
					c-0.212-7.44-0.744-12.011-0.744-12.011l12.438-0.744C172.806,231.31,173.442,237.05,176.261,240.345z"/>
				<path style="fill-rule:evenodd;clip-rule:evenodd;fill:#EABC4E;" d="M166.962,257.068c-9.617,3.188-14.823,9.26-18.028,19.18
					c-3.207,9.921-5.7,11.469-5.7,11.469l12.021,1.595L166.962,257.068z"/>
				<path style="fill-rule:evenodd;clip-rule:evenodd;fill:#381F4C;" d="M157.381,231.263c1.936,2.554,7.743-3.122,8.406,0.071
					c1,4.813,4.278,8.89,8.983,12.015c2.85,1.893,3.48,5.557,3.724,4.687c0.885-3.161,2.33-17.687,0.465-19.068
					c-4.409-3.265-16.709,0.781-21.23,0.663C157.173,229.618,156.999,230.761,157.381,231.263z"/>
				<path style="fill-rule:evenodd;clip-rule:evenodd;fill:#381F4C;" d="M160.404,239.54c0.645,0.121,0.852-1.997,1.963-4.058
					c0.996-1.844,2.9-3.642,3.508-3.748c5.295-0.929,12.526-2.257,12.507-3.076c-0.186-8.089-15.397-5.212-19.843-0.853
					C156.374,229.93,154.317,238.399,160.404,239.54z"/>
				<path style="fill-rule:evenodd;clip-rule:evenodd;fill:#EABC4E;" d="M175.863,256.315c0.314,0.108,2.177,0.44,2.486,0.558
					c7.008,2.653,12.648,8.085,15.362,20.172c2.834,12.62,2.834,12.62,2.834,12.62l-15.943-0.631L175.863,256.315z"/>
				<path style="fill-rule:evenodd;clip-rule:evenodd;fill:#381F4C;" d="M178.354,233.331c2.03,4.124,3.319,5.006,5.093,6.222
					c1.041,0.713,2.233,1.531,3.792,3.051c2.377,2.322,3.252,4.19,3.169,6.115c-0.08,1.88-1.072,3.631-2.458,5.858
					c-0.157,0.254-0.275,0.499-0.359,0.735c-0.398,1.142-0.037,2.263,0.643,3.241c0.758,1.092,1.895,2.012,2.898,2.636
					c0.572,0.356,1.083,0.606,1.444,0.732l-0.637,1.825c-0.488-0.171-1.14-0.486-1.83-0.915c-1.186-0.737-2.54-1.84-3.465-3.173
					c-1.003-1.444-1.518-3.15-0.877-4.982c0.133-0.378,0.312-0.752,0.541-1.123c1.23-1.978,2.109-3.509,2.17-4.911
					c0.059-1.357-0.656-2.77-2.587-4.654c-1.436-1.401-2.556-2.169-3.533-2.839c-2.017-1.383-3.482-2.387-5.735-6.963
					L178.354,233.331z"/>
				<path style="fill-rule:evenodd;clip-rule:evenodd;fill:#D98C80;" d="M192.445,280.846l6.732,10.186
					c3.678-4.435,8.887-10.923,12-15.77c0,0-0.347-3.077-0.282-3.668c0.065-0.59,0.567-2.766,0.567-2.766
					c1.376-2.589,1.504,0.646,2.135,2.376c5.679-7.113,7.191-5.529,5.932-1.229c-2.58,8.817-15.821,31.68-21.769,32.837
					c-4.35,0.847-12.224-18.336-12.224-18.336L192.445,280.846z"/>
				<path style="fill-rule:evenodd;clip-rule:evenodd;fill:#EABC4E;" d="M176.499,256.966c9.617,3.189,14.515,7.721,17.721,17.641
					c3.207,9.922,4.674,13.11,4.674,13.11l-12.023,1.595L176.499,256.966z"/>
				<path style="fill-rule:evenodd;clip-rule:evenodd;fill:#CF801C;" d="M177.438,256.527
					c-3.693,70.562,8.615,116.508,8.615,116.508l11.896-6.563c0,0-4.513-26.665-7.18-50.254c-2.667-23.589-2.667-24.82-2.667-24.82
					s4.514,15.385,11.898,12.513c7.385-2.871,14.975-21.538,14.975-21.538l-5.129-4.922c0,0-9.846,13.127-11.076,11.281
					C197.539,286.886,195.282,261.45,177.438,256.527z"/>
				<path style="fill-rule:evenodd;clip-rule:evenodd;fill:#CF801C;" d="M165.271,257.528c0.589,69.802-11.42,115.706-11.42,115.706
					l-11.759-6.809c0,0,5.064-26.566,8.219-50.095c3.154-23.528,3.18-24.759,3.18-24.759s-4.83,15.287-12.153,12.264
					c-7.323-3.025-14.524-21.845-14.524-21.845l5.229-4.815c0,0,9.572,13.329,10.841,11.51
					C144.151,286.865,147.327,262.08,165.271,257.528z"/>
				<g>
					<path style="fill-rule:evenodd;clip-rule:evenodd;fill:#B0651C;" d="M147.491,335.664c3.026,0.788,5.225,0.788,5.23,0.788
						l0.512,0.003l-0.03,0.508c-0.002,0.032-0.635,11.246-5.317,12.139c-0.593,0.112-1.1,0.188-1.536,0.233
						c-0.439,0.046-0.808,0.063-1.116,0.055l0.019-0.965c0.267,0.006,0.596-0.009,1-0.051c0.406-0.043,0.888-0.114,1.456-0.223
						c3.424-0.651,4.318-8.669,4.493-10.752c-0.854-0.047-2.691-0.211-4.953-0.8L147.491,335.664z"/>
					<path style="fill-rule:evenodd;clip-rule:evenodd;fill:#B0651C;" d="M193.416,336.419c-2.563,0.737-4.678,0.93-5.613,0.98
						c0.174,2.083,1.068,10.101,4.492,10.752c0.709,0.135,1.286,0.213,1.757,0.249c0.452,0.034,0.795,0.03,1.054,0l0.11,0.962
						c-0.316,0.036-0.72,0.043-1.235,0.003c-0.499-0.037-1.11-0.12-1.864-0.264c-4.682-0.893-5.314-12.107-5.315-12.139
						l-0.031-0.508l0.512-0.003c0.008,0,2.517,0,5.87-0.964L193.416,336.419z"/>
				</g>
			</g>
			<g>
				<path style="fill-rule:evenodd;clip-rule:evenodd;fill:#381F4C;" d="M63.545,249.451c1.072,0,1.948-0.876,1.948-1.949
					c0-1.073-0.876-1.949-1.948-1.949c-1.073,0-1.949,0.876-1.949,1.949C61.596,248.575,62.472,249.451,63.545,249.451z"/>
				<path style="fill-rule:evenodd;clip-rule:evenodd;fill:#381F4C;" d="M58.468,245.553c1.215,0,2.205-0.99,2.205-2.205
					c0-1.214-0.99-2.205-2.205-2.205c-1.215,0-2.204,0.991-2.204,2.205C56.264,244.563,57.253,245.553,58.468,245.553z"/>
				<path style="fill-rule:evenodd;clip-rule:evenodd;fill:#381F4C;" d="M55.135,237.245c1.299,0,2.358-1.059,2.358-2.358
					c0-1.299-1.06-2.359-2.358-2.359c-1.3,0-2.359,1.06-2.359,2.359C52.775,236.186,53.835,237.245,55.135,237.245z"/>
				<path style="fill-rule:evenodd;clip-rule:evenodd;fill:#381F4C;" d="M57.75,233.861c2.231,0,4.051-1.819,4.051-4.051
					c0-2.231-1.819-4.05-4.051-4.05s-4.051,1.819-4.051,4.05C53.699,232.042,55.519,233.861,57.75,233.861z"/>
				<path style="fill-rule:evenodd;clip-rule:evenodd;fill:#381F4C;" d="M69.194,230.121c0.57,2.21,2.576,3.842,4.965,3.842
					c2.832,0,5.129-2.295,5.129-5.127c0-2.643-1.998-4.817-4.565-5.098c-0.696-1.357-2.111-2.287-3.742-2.287
					c-1.271,0-2.409,0.563-3.181,1.454c-1.043-0.906-2.405-1.454-3.896-1.454c-3.146,0-5.72,2.44-5.934,5.531
					c-1.564,0.048-2.957,1.535-2.055,3.42c-0.775,0.94-1.242,2.145-1.242,3.458c0,0.642,0.111,1.257,0.315,1.828
					c-0.706,0.796-1.136,1.845-1.136,2.993c0,2.358,1.809,4.294,4.115,4.495c0.175,2.249,2.054,4.018,4.346,4.018
					c2.407,0,4.358-1.951,4.358-4.359c0-2.204-1.635-4.025-3.759-4.317c1.576-0.952,2.631-2.681,2.631-4.657
					c0-0.246-0.017-0.489-0.048-0.727C67.106,232.686,68.442,231.579,69.194,230.121z"/>
				<path style="fill-rule:evenodd;clip-rule:evenodd;fill:#D98C80;" d="M86.887,275.103l6.732,10.187
					c3.678-4.435,8.887-10.923,12-15.769c0,0-0.347-3.078-0.282-3.669c0.065-0.59,0.567-2.766,0.567-2.766
					c1.376-2.589,1.504,0.646,2.135,2.376c5.679-7.113,7.19-5.529,5.932-1.229c-2.582,8.817-15.821,31.68-21.769,32.837
					c-4.352,0.846-12.226-18.336-12.226-18.336L86.887,275.103z"/>
				<path style="fill-rule:evenodd;clip-rule:evenodd;fill:#381F4C;" d="M70.751,257.068c4.693,0.405,10.698,7.237,15.471,15.098
					c3.502,5.766,7.719,11.75,7.548,11.83l-11.313,5.315L70.751,257.068z"/>
				<path style="fill-rule:evenodd;clip-rule:evenodd;fill:#D98C80;" d="M56.138,411.637c-1.949,9.3-1.949,9.3-1.949,9.3h-4.961
					l0.443-9.654L56.138,411.637z"/>
				<path style="fill-rule:evenodd;clip-rule:evenodd;fill:#D98C80;" d="M76.654,411.637c-0.232,9.3-0.232,9.3-0.232,9.3h4.961
					l1.821-9.654L76.654,411.637z"/>
				<path style="fill-rule:evenodd;clip-rule:evenodd;fill:#2C3B5B;" d="M75.892,419.52c0,5.847,0,5.847,0,5.847h16.74
					l-10.717-5.847H75.892z"/>
				<path style="fill-rule:evenodd;clip-rule:evenodd;fill:#2C3B5B;" d="M48.697,419.52c0,5.847,0,5.847,0,5.847h16.74
					l-10.717-5.847H48.697z"/>
				<path style="fill-rule:evenodd;clip-rule:evenodd;fill:#2C3B5B;" d="M52.969,324.107l-1.768,47.429l-4.823,43.772l12.117-0.638
					l12.756-71.644l5.569,32.215l-2.168,39.429l10.205,0.85l6.165-41.668l-0.85-51.234C90.173,322.618,63.173,319.43,52.969,324.107
					z"/>
				<path style="fill-rule:evenodd;clip-rule:evenodd;fill:#381F4C;" d="M51.904,294.77c0.297,8.84-1.988,34.486-1.812,34.625
					c3.976,3.136,10.602,4.936,17.57,5.271c1.554,0.074,0.356-7.616,1.815-7.791c2.901-0.347,7.486-0.868,10.706-0.355
					c0.818,0.13,0.477,6.473,1.229,6.682c3.527,0.983,7.264-2.575,9.379-4.313c0.218-0.179-5.086-34.943-5.086-39.646
					c0-24.419-10.943-33.076-18.29-33.465c-2.742-0.144-8.804,2.773-11.041,4.583C51.09,264.64,51.178,273.088,51.904,294.77z"/>
				<path style="fill-rule:evenodd;clip-rule:evenodd;fill:#99B1D9;" d="M61.802,257.757c6.768,70.973,6.768,70.973,6.768,70.973
					s10.667-0.205,11.691-1.436c1.025-1.229-2.871-55.997-4.923-63.586c-2.051-7.59-2.461-6.359-2.461-6.359
					S66.108,253.655,61.802,257.757z"/>
				<path style="fill-rule:evenodd;clip-rule:evenodd;fill:#D18074;" d="M63.03,243.852c0.744,12.756,0.744,12.756,0.744,12.756
					s-0.532,5.952,4.783,7.759c5.314,1.809,3.188-6.483,3.188-6.483l-0.213-5.952C71.533,251.932,67.92,240.558,63.03,243.852z"/>
				<path style="fill-rule:evenodd;clip-rule:evenodd;fill:#D98C80;" d="M63.082,240.345c-1.704-1.803-3.508,1.592-1.608,2.927
					c0.75,0.528,1.768,0.528,1.768,0.528s0.319,4.093,5.209,6.856c4.89,2.764,9.566,0.85,9.78-6.591
					c0.213-7.44,0.743-12.011,0.743-12.011l-12.437-0.744C66.537,231.31,65.899,237.05,63.082,240.345z"/>
				<path style="fill-rule:evenodd;clip-rule:evenodd;fill:#381F4C;" d="M63.198,241.141c1.405-3.036,5.211-3.883,3.677-6.953
					c0,0,3.188,0.399,3.854-0.487c0.664-0.886,0.708-1.196,0.708-1.196c2.837,1.279,9.717,2.433,10.763-1.639
					c0.885-3.454-5.359-3.056-5.359-3.056s-0.155-2.791-2.525-3.432c-2.369-0.642-3.719,1.571-3.719,1.571s-1.882-2.855-3.921-1.815
					c-2.037,1.041-2.125,3.387-2.125,3.387s-2.504-0.643-3.411,0.776c-0.908,1.417,0.687,3.233,0.687,3.233
					s-2.457-0.642-2.457,1.795C59.368,235.274,61.49,239.86,63.198,241.141z"/>
				<path style="fill-rule:evenodd;clip-rule:evenodd;fill:#D98C80;" d="M51.116,280.578c-2.434,5.903-5.316,12.241-5.316,12.241
					l19.588,20.193c0,0,3.808-0.125,4.525,0.013c0.717,0.137,3.337,0.965,3.337,0.965s-0.029,1.066-1.352,1.229
					c-1.32,0.163-1.669,0.272-1.669,0.272l4.194,4.752c3.082,3.492-0.829,3.183-4.923,2.83c-2.496-0.214-8.263-4.948-8.263-4.948
					s-21.725-17.975-23.906-21.851c-2.182-3.877,2.954-16.426,2.954-16.426L51.116,280.578z"/>
				<path style="fill-rule:evenodd;clip-rule:evenodd;fill:#381F4C;" d="M61.449,258.504c-10.68-0.863-25.784,26.593-25.436,26.747
					l12.977,5.774l8.578-14.069L61.449,258.504z"/>
				<g>
					<path style="fill-rule:evenodd;clip-rule:evenodd;fill:#381F4C;" d="M69.803,266.603c7.563,37.815,7.563,37.815,7.563,37.815
						l-2.836,5.672l-5.908-6.145L69.803,266.603z"/>
					<polygon style="fill-rule:evenodd;clip-rule:evenodd;fill:#381F4C;" points="72.442,267.804 70.222,271.732 67.287,268.356 
						69.506,265.868 					"/>
				</g>
				<path style="fill-rule:evenodd;clip-rule:evenodd;fill:#381F4C;" d="M64.16,311.602c-4.923,4.719-4.923,4.719-4.923,4.719
					s-23.999-17.23-24.409-22.974c-0.41-5.743,2.666-10.667,2.666-10.667l4.103-4.512l11.076,5.948c0,0-4.307,5.641-3.076,9.743
					C50.827,297.961,64.16,311.602,64.16,311.602z"/>
				<path style="fill-rule:evenodd;clip-rule:evenodd;fill:#381F4C;" d="M103.851,270.476c6.564,3.691,6.771,2.257,6.564,3.691
					c-0.205,1.436-14.975,25.025-18.051,24c-3.077-1.026-10.461-12.923-10.461-12.923l8.615-6.153l3.692,5.128L103.851,270.476z"/>
			</g>
			<g>
				<path style="fill-rule:evenodd;clip-rule:evenodd;fill:#D98C80;" d="M406.992,275.103l-6.732,10.187l-16.014-17.664
					c0,0-1.24-1.596-3.277-2.305c-2.037-0.708-7.908-0.851-7.908-0.851c0.018,0.932,0.447,1.092,1.131,1.56
					c-1.859,0-10.695-0.707-4.199,2.237c3.354,1.52,9.256,3.06,11.242,4.052c2.834,1.418,16.092,23.905,20.443,24.752
					c4.35,0.846,12.223-18.336,12.223-18.336L406.992,275.103z"/>
				<path style="fill-rule:evenodd;clip-rule:evenodd;fill:#381F4C;" d="M411.07,288.348c-3.248,6.271-8.066,12.305-12.092,9.725
					c-4.025-2.58-16.248-21.021-15.828-22.822s3.922-5.143,4.541-4.514c0.617,0.628,12.154,10.252,13.141,11.155
					c0.988,0.901,0.988,0.901,0.988,0.901l3.283-4.178L411.07,288.348z"/>
				<path style="fill-rule:evenodd;clip-rule:evenodd;fill:#381F4C;" d="M381.857,274.034c0.881,0.973,1.32,1.11,1.32,1.11
					s4.85-3.322,4.678-3.806c-0.172-0.482-0.701-1.023-0.994-1.115C386.566,270.131,382.457,272.287,381.857,274.034z"/>
				<path style="fill-rule:evenodd;clip-rule:evenodd;fill:#68ABE1;" d="M423.129,257.068c-4.695,0.405-10.699,7.237-15.473,15.098
					c-3.502,5.766-6.055,9.561-5.906,9.677l9.672,7.469L423.129,257.068z"/>
				<path style="fill-rule:evenodd;clip-rule:evenodd;fill:#D98C80;" d="M443.777,411.637c0.233,9.3,0.233,9.3,0.233,9.3h-4.961
					l-1.82-9.654L443.777,411.637z"/>
				<path style="fill-rule:evenodd;clip-rule:evenodd;fill:#D98C80;" d="M418.853,411.637c0.232,9.3,0.232,9.3,0.232,9.3h-4.959
					l-1.822-9.654L418.853,411.637z"/>
				<path style="fill-rule:evenodd;clip-rule:evenodd;fill:#2C3B5B;" d="M419.619,419.52c0,5.847,0,5.847,0,5.847h-16.742
					l10.719-5.847H419.619z"/>
				<path style="fill-rule:evenodd;clip-rule:evenodd;fill:#2C3B5B;" d="M444.598,419.52c0,5.847,0,5.847,0,5.847h-16.742
					l10.719-5.847H444.598z"/>
				<path style="fill-rule:evenodd;clip-rule:evenodd;fill:#2C3B5B;" d="M442.938,324.107l0.598,46.801l2.709,44.4l-8.834-0.638
					l-14.529-70.581l-3.797,31.152l2.168,39.429l-10.203,0.85l-6.166-41.668l0.85-51.234
					C405.732,322.618,432.732,319.43,442.938,324.107z"/>
				<path style="fill-rule:evenodd;clip-rule:evenodd;fill:#793323;" d="M440.043,239.816c-2.127,6.377-12.246,12.905-9.5,15.385
					c2.744,2.48,1.896,8.131,9.678,7.912c7.779-0.22-12.352-1.281-12.793-6.597c-0.443-5.315-0.979-3.134-1.6-6.588
					c-0.621-3.455-8.285-16.756-8.285-16.756l-0.088,7.352c0,0-3.543-7.706-3.277-9.655c0.189-1.385,4.771-5.482,9.02-7.653
					c10.457-5.344,11.252,3.262,11.627,3.379C440.111,228.24,442.1,233.645,440.043,239.816z"/>
				<path style="fill-rule:evenodd;clip-rule:evenodd;fill:#68ABE1;" d="M443.603,294.77c-0.295,8.84,1.99,26.691,1.813,26.83
					c-8.912,7.027-31.133,7.349-40.699-0.507c-0.221-0.18,5.086-27.148,5.086-31.852c0-24.419,10.943-33.076,18.289-33.465
					C437.318,255.291,444.641,263.917,443.603,294.77z"/>
				<path style="fill-rule:evenodd;clip-rule:evenodd;fill:#D18074;" d="M432.48,243.852c-0.744,12.756-0.744,12.756-0.744,12.756
					s0.531,5.952-4.783,7.759c-5.314,1.809-3.189-6.483-3.189-6.483l0.213-5.952C423.977,251.932,427.59,240.558,432.48,243.852z"/>
				<path style="fill-rule:evenodd;clip-rule:evenodd;fill:#D98C80;" d="M432.428,240.345c1.703-1.803,3.506,1.592,1.607,2.927
					c-0.75,0.528-1.768,0.528-1.768,0.528s-0.32,4.093-5.209,6.856c-4.891,2.764-9.566,0.85-9.779-6.591
					c-0.213-7.44,0.383-10.678,0.383-10.678c8.734,6.019,14.744-0.419,14.715-0.2C432.123,235.211,431.885,238.289,432.428,240.345z
					"/>
				<path style="fill-rule:evenodd;clip-rule:evenodd;fill:#D98C80;" d="M448.203,279.858l6.432,7.706l-10.865,16.917
					c0,0-1.449,1.406-1.932,3.509c-0.691,3.012-2.631,5.603-0.324,6.688l1.768-2.598l0.719,9.129c0,0,1.473-1.137,1.961-2.629
					c1.147-3.499,2.033-9.536,2.803-11.617c1.1-2.971,17.592-15.549,17.959-19.966c0.367-4.417-12.119-15.644-12.119-15.644
					L448.203,279.858z"/>
				<path style="fill-rule:evenodd;clip-rule:evenodd;fill:#381F4C;" d="M444.389,302.859c-0.666,1.128-0.666,1.589-0.666,1.589
					s4.615,3.642,5.025,3.334c0.41-0.308,0.77-0.975,0.77-1.282S446.236,302.911,444.389,302.859z"/>
				<path style="fill-rule:evenodd;clip-rule:evenodd;fill:#381F4C;" d="M460.543,276.143c6.152,4.717,8.922,9.333,7.076,13.742
					c-1.846,4.411-16.102,16.82-17.949,16.718c-1.844-0.103-5.742-2.975-5.229-3.691c0.512-0.718,7.998-13.744,8.717-14.871
					c0.719-1.129,0.719-1.129,0.719-1.129l-3.387-4.615L460.543,276.143z"/>
				<path style="fill-rule:evenodd;clip-rule:evenodd;fill:#68ABE1;" d="M432.65,256.821c4.602-1.017,12.373,3.707,19.279,9.778
					c5.066,4.454,10.881,8.904,10.742,9.03l-10.801,9.696l-12.365-10.885L432.65,256.821z"/>
				<path style="fill-rule:evenodd;clip-rule:evenodd;fill:#381F4C;" d="M432.082,253.22c0.641-0.282,2-0.385,2.691,2.847
					c0.693,3.23-0.435,8.23-5.666,10.281c-5.23,2.051-7.949-2.41-7.025-6.872c0.924-4.461,1.23-5.641,1.795-4.666
					c0.564,0.975-0.256,4.718,3.385,4.153C430.902,258.399,431.518,256.349,432.082,253.22z"/>
			</g>
		</g>
		<g>
			<path style="fill-rule:evenodd;clip-rule:evenodd;fill:#4C878B;" d="M248.821,42.9c39.007,0,71.679,34.943,71.679,73.44
				c0,57.413-53.759,52.898-53.759,96.854c-0.884,6.124-3.107,10.508-6.652,13.141c-2.659,1.976-10.451,3.044-15.864,1.235
				c-6.691-2.236-9.805-7.004-9.805-12.989v-4.641c0-58.884,53.441-52.662,53.441-95.36c0-21.992-19.398-39.04-40.801-39.04
				c-15.52,0-27.627,8.213-36.374,24.693l-2.592,12.705c0,0,0.423,7.183-6.042,12.66c-3.38,2.864-6.845,4.343-10.459,4.343
				c-10.72-2.293-16.053-7.627-16.053-15.947c0-22.827,11.2-42.72,33.546-59.627C222.74,46.74,235.967,42.9,248.821,42.9
				L248.821,42.9z M250.848,236.233c1.953,0,3.776,0.255,5.462,0.724c8.934,2.489,14.003,11.016,14.121,19.605
				c0.078,5.669-2.018,11.813-6.354,15.987c-11.549,11.118-35.096,3.867-35.096-15.089
				C228.981,244.503,238.13,236.233,250.848,236.233z"/>
			<path style="fill-rule:evenodd;clip-rule:evenodd;fill:#316360;" d="M258.444,40.532c19.985,0,38.352,8.855,51.791,22.626
				c13.674,14.008,22.256,33.124,22.256,53.182c0,31.708-15.727,45.083-30.406,57.567c-12.054,10.251-23.355,19.861-23.355,39.287
				v0.141l-0.026,0.192c-0.852,5.897-2.888,10.383-6.097,13.448c-3.27,3.126-13.989,7.33-26.322-1.368
				c-3.07-2.922-4.609-6.597-4.609-11.026v-4.641c0-32.91,16.042-46.094,30.797-58.22c11.76-9.665,22.646-18.611,22.646-37.141
				c0-10.126-4.391-19.138-11.238-25.688c-7.129-6.821-16.914-10.983-27.194-10.983c-7.289,0-13.754,1.915-19.406,5.75
				c-4.465,3.031-8.463,7.283-11.997,12.758c-0.944,1.463-4.258,12.122-4.258,12.122l-1.486,7.279c0,0,0.422,10.74-9.462,13.873
				c-2.86,1.743-5.813,2.618-8.859,2.618h-0.231l-0.26-0.055c-5.807-1.242-10.209-3.359-13.212-6.343
				c-3.148-3.126-4.718-7.101-4.718-11.915c0-11.821,2.901-22.885,8.696-33.186c5.755-10.229,14.355-19.674,25.794-28.329
				l0.104-0.079l0.172-0.097c6.98-3.899,13.863-6.833,20.658-8.797C245.074,41.526,251.813,40.532,258.444,40.532L258.444,40.532z
				 M306.852,66.451c-12.585-12.893-29.752-21.184-48.407-21.184c-6.225,0-12.526,0.926-18.912,2.771
				c-6.389,1.847-12.888,4.614-19.503,8.294c-10.858,8.233-18.999,17.164-24.414,26.788c-5.387,9.577-8.084,19.87-8.084,30.873
				c0,3.514,1.102,6.371,3.312,8.567c2.3,2.285,5.831,3.957,10.598,5.009c2.096-0.043,4.155-0.683,6.175-1.914
				c7.696-2.556,7.327-10.927,7.327-10.927l1.393-6.825c0,0,2.433-9.953,4.46-13.252c3.943-6.415,8.608-11.347,13.838-14.897
				c6.47-4.391,13.817-6.582,22.051-6.582c11.5,0,22.458,4.667,30.451,12.316c7.748,7.413,12.714,17.618,12.714,29.091
				c0,20.746-11.722,30.379-24.382,40.785c-13.921,11.441-29.058,23.88-29.058,54.576v4.641c0,3.086,1.045,5.621,3.13,7.605
				c2.22,2.112,5.619,3.694,10.189,4.745c4.096-0.038,7.309-1.166,9.623-3.378c2.386-2.28,3.938-5.786,4.645-10.514
				c0.06-21.494,12.145-31.775,25.037-42.739c13.865-11.792,28.722-24.428,28.722-53.96
				C327.755,97.542,319.693,79.609,306.852,66.451L306.852,66.451z M260.469,233.865c1.03,0,2.065,0.073,3.102,0.209
				c1.042,0.139,2.039,0.344,2.991,0.609c4.839,1.349,8.668,4.26,11.355,7.989c2.871,3.987,4.426,8.917,4.493,13.863
				c0.045,3.228-0.552,6.597-1.799,9.735c-1.178,2.963-2.933,5.725-5.275,7.98c-4.182,4.027-9.722,5.915-15.31,5.915
				c-3.253,0-6.531-0.643-9.569-1.878c-3.048-1.239-5.86-3.083-8.168-5.48c-3.677-3.819-6.055-9.005-6.055-15.347
				c0-7.069,2.499-12.911,6.746-17.031C247.311,236.227,253.407,233.865,260.469,233.865L260.469,233.865z M262.962,238.756
				c-0.762-0.101-1.593-0.155-2.493-0.155c-5.809,0-10.756,1.874-14.195,5.215c-3.337,3.239-5.303,7.914-5.303,13.645
				c0,5.019,1.853,9.094,4.721,12.073c1.831,1.899,4.084,3.37,6.542,4.371c2.47,1.004,5.14,1.524,7.793,1.524
				c4.435,0,8.795-1.462,12.036-4.582c1.844-1.775,3.229-3.963,4.167-6.316c1.016-2.558,1.5-5.307,1.464-7.94
				c-0.054-3.994-1.302-7.964-3.605-11.163c-2.089-2.897-5.051-5.155-8.783-6.195C264.548,239.023,263.767,238.861,262.962,238.756z
				"/>
		</g>
		<g>
			<g>
				<path style="fill-rule:evenodd;clip-rule:evenodd;fill:#CFDDEB;" d="M131.067,98.526l0.27-0.025l0.181-0.016l0.182-0.014
					l0.182-0.013l0.182-0.012l0.183-0.011l0.183-0.01l0.184-0.008l0.183-0.008l0.185-0.006l0.184-0.005l0.185-0.004l0.184-0.003
					l0.186-0.001l0.185-0.002v-1.454l-0.194,0.001l-0.194,0.001l-0.193,0.003l-0.193,0.004l-0.192,0.006l-0.193,0.006l-0.192,0.008
					l-0.192,0.008l-0.191,0.011l-0.192,0.012l-0.191,0.013l-0.191,0.014l-0.19,0.015l-0.19,0.017l-0.278,0.026L131.067,98.526
					l2.834-0.139l0.186,0.002l0.185,0.001l0.185,0.003l0.184,0.004l0.184,0.005l0.216,0.007l0.064-1.452l-0.233-0.008l-0.192-0.006
					l-0.194-0.004l-0.193-0.003l-0.194-0.001l-0.194-0.001L131.067,98.526L131.067,98.526z M136.458,98.5l0.189,0.018l0.181,0.017
					l0.18,0.019l0.181,0.02l0.179,0.021l0.18,0.021l0.179,0.023l0.179,0.024l0.178,0.026l0.178,0.026l0.178,0.027l0.178,0.029
					l0.175,0.03l0.177,0.031l0.176,0.032l0.123,0.022l0.273-1.428l-0.132-0.024l-0.185-0.034l-0.186-0.032l-0.185-0.031l-0.187-0.03
					l-0.186-0.029l-0.186-0.028l-0.188-0.027l-0.186-0.026l-0.189-0.024l-0.188-0.023l-0.189-0.021l-0.189-0.021l-0.189-0.02
					l-0.189-0.019l-0.198-0.018L136.458,98.5L136.458,98.5z M140.649,99.188l0.23,0.056l0.171,0.044l0.172,0.045l0.171,0.045
					l0.17,0.047l0.17,0.048l0.169,0.049l0.169,0.049l0.17,0.051l0.167,0.052l0.168,0.053l0.167,0.054l0.167,0.055l0.166,0.056
					l0.167,0.057l0.123,0.043l0.483-1.371l-0.133-0.047l-0.175-0.06l-0.175-0.058l-0.175-0.058l-0.176-0.056l-0.177-0.056
					l-0.177-0.054l-0.177-0.053l-0.178-0.052l-0.179-0.051l-0.179-0.05l-0.179-0.049l-0.18-0.047l-0.18-0.047l-0.181-0.046
					l-0.238-0.059L140.649,99.188L140.649,99.188z M144.693,100.493l0.182,0.075l0.161,0.067l0.161,0.069l0.159,0.069l0.158,0.07
					l0.159,0.071l0.157,0.072l0.314,0.147l0.158,0.075l0.156,0.076l0.155,0.077l0.154,0.078l0.155,0.079l0.153,0.079l0.18,0.094
					l0.686-1.281l-0.194-0.103l-0.163-0.084l-0.162-0.082l-0.162-0.082l-0.164-0.081l-0.164-0.08l-0.164-0.079l-0.165-0.078
					l-0.166-0.077l-0.166-0.076l-0.167-0.075l-0.167-0.074l-0.168-0.072l-0.168-0.072l-0.169-0.07l-0.191-0.079L144.693,100.493
					L144.693,100.493z M148.495,102.385l0.239,0.143l0.147,0.09l0.146,0.091l0.146,0.092l0.145,0.093l0.145,0.093l0.145,0.094
					l0.144,0.095l0.143,0.096l0.143,0.097l0.142,0.097l0.142,0.099l0.141,0.1l0.14,0.1l0.258,0.188l0.863-1.169l-0.126-0.092
					l-0.146-0.106l-0.146-0.105l-0.148-0.105l-0.148-0.104l-0.148-0.103l-0.149-0.101l-0.15-0.101l-0.151-0.1l-0.151-0.099
					l-0.152-0.098l-0.152-0.098l-0.154-0.096l-0.153-0.096l-0.155-0.094l-0.246-0.149L148.495,102.385L148.495,102.385z
					 M151.976,104.819l0.254,0.21l0.131,0.11l0.131,0.111l0.13,0.112l0.13,0.112l0.129,0.114l0.128,0.114l0.127,0.115l0.127,0.116
					l0.252,0.234l0.124,0.118l0.123,0.119l0.124,0.12l0.197,0.194l1.028-1.028l-0.21-0.207l-0.129-0.125l-0.13-0.125l-0.131-0.124
					l-0.133-0.123l-0.132-0.123l-0.133-0.121l-0.134-0.121l-0.135-0.12l-0.136-0.119l-0.136-0.119l-0.137-0.118l-0.138-0.117
					l-0.138-0.116l-0.139-0.115l-0.122-0.1L151.976,104.819L151.976,104.819z M155.063,107.745l0.129,0.142l0.113,0.128l0.114,0.129
					l0.112,0.13l0.113,0.13l0.11,0.13l0.11,0.131l0.22,0.266l0.107,0.133l0.107,0.134l0.212,0.27l0.104,0.136l0.105,0.137
					l0.143,0.19l1.169-0.863l-0.151-0.204l-0.11-0.144l-0.11-0.143l-0.11-0.142l-0.112-0.142l-0.113-0.141l-0.112-0.14l-0.115-0.14
					l-0.115-0.139l-0.116-0.138l-0.116-0.137l-0.118-0.137l-0.119-0.136l-0.118-0.135l-0.121-0.135l-0.134-0.148L155.063,107.745
					L155.063,107.745z M157.683,111.089l0.131,0.197l0.095,0.144l0.093,0.145l0.093,0.146l0.091,0.146l0.092,0.147l0.09,0.147
					l0.089,0.148l0.088,0.148l0.089,0.149l0.086,0.149l0.085,0.15l0.086,0.15l0.083,0.151l0.083,0.151l0.085,0.158l1.286-0.678
					l-0.094-0.174l-0.088-0.159l-0.087-0.159l-0.089-0.159l-0.091-0.158l-0.09-0.157l-0.093-0.156l-0.093-0.156l-0.094-0.155
					l-0.095-0.155l-0.096-0.153l-0.096-0.154l-0.098-0.153l-0.098-0.152l-0.1-0.152l-0.136-0.205L157.683,111.089L157.683,111.089z
					 M159.777,114.783l0.131,0.28l0.072,0.158l0.071,0.159l0.07,0.159l0.068,0.159l0.069,0.161l0.067,0.161l0.066,0.161l0.065,0.162
					l0.064,0.162l0.064,0.162l0.063,0.163l0.061,0.164l0.061,0.164l0.088,0.246l1.372-0.483l-0.095-0.262l-0.064-0.172l-0.064-0.172
					l-0.065-0.171l-0.066-0.171l-0.068-0.17l-0.068-0.17l-0.07-0.169l-0.07-0.169l-0.072-0.168l-0.073-0.168l-0.073-0.167
					l-0.074-0.167l-0.076-0.166l-0.135-0.288L159.777,114.783L159.777,114.783z M161.302,118.749l0.071,0.243l0.049,0.169
					l0.048,0.17l0.047,0.171l0.046,0.17l0.044,0.171l0.044,0.172l0.043,0.172l0.041,0.173l0.04,0.172l0.039,0.173l0.039,0.174
					l0.037,0.174l0.036,0.174l0.055,0.274l1.428-0.273l-0.059-0.292l-0.037-0.183l-0.04-0.183l-0.04-0.183l-0.041-0.182
					l-0.043-0.182l-0.043-0.181l-0.045-0.181l-0.046-0.181l-0.048-0.18l-0.048-0.179l-0.048-0.179l-0.05-0.178l-0.052-0.178
					l-0.074-0.251L161.302,118.749L161.302,118.749z M162.216,122.898l0.039,0.272l0.021,0.179l0.022,0.179l0.021,0.18l0.02,0.18
					l0.02,0.18l0.017,0.181l0.017,0.181l0.017,0.181l0.014,0.182l0.014,0.182l0.012,0.182l0.012,0.183l0.009,0.183l0.009,0.198
					l1.453-0.055l-0.011-0.216l-0.01-0.192l-0.011-0.191l-0.014-0.192l-0.014-0.191l-0.015-0.19l-0.017-0.19l-0.017-0.19l-0.02-0.19
					l-0.02-0.189l-0.021-0.189l-0.022-0.189l-0.023-0.188l-0.023-0.188l-0.04-0.281L162.216,122.898L162.216,122.898z
					 M162.507,127.14l-0.002,0.224l-0.003,0.184l-0.004,0.185l-0.005,0.184l-0.007,0.184l-0.008,0.184l-0.009,0.183l-0.009,0.183
					l-0.012,0.182l-0.012,0.182l-0.014,0.182l-0.014,0.182l-0.017,0.181l-0.017,0.181l-0.023,0.23l1.446,0.156l0.025-0.248
					l0.017-0.189l0.017-0.19l0.015-0.19l0.014-0.191l0.014-0.191l0.011-0.192l0.01-0.192l0.01-0.192l0.008-0.192l0.007-0.193
					l0.005-0.193l0.005-0.194l0.004-0.194l0.001-0.233L162.507,127.14L162.507,127.14z M162.174,131.374l-0.024,0.154l-0.028,0.177
					l-0.03,0.176l-0.03,0.176l-0.032,0.176l-0.033,0.175l-0.034,0.175l-0.035,0.175l-0.036,0.174l-0.037,0.174l-0.039,0.173
					l-0.039,0.173l-0.04,0.172l-0.041,0.172l-0.043,0.172l-0.046,0.178l1.406,0.371l0.05-0.195l0.045-0.181l0.043-0.181l0.043-0.182
					l0.041-0.182l0.04-0.183l0.04-0.183l0.037-0.183l0.038-0.184l0.035-0.184l0.034-0.185l0.034-0.185l0.033-0.185l0.03-0.186
					l0.03-0.186l0.024-0.154L162.174,131.374L162.174,131.374z M161.217,135.512l-0.049,0.156l-0.054,0.168l-0.055,0.166
					l-0.056,0.167l-0.056,0.165l-0.058,0.165l-0.059,0.165l-0.06,0.165l-0.061,0.164l-0.061,0.164l-0.063,0.163l-0.064,0.163
					l-0.064,0.162l-0.065,0.162l-0.066,0.161l-0.087,0.207l1.335,0.574l0.094-0.222l0.07-0.169l0.068-0.17l0.068-0.17l0.066-0.171
					l0.065-0.172l0.064-0.171l0.064-0.172l0.063-0.173l0.061-0.173l0.061-0.174l0.06-0.174l0.06-0.175l0.057-0.176l0.057-0.175
					l0.049-0.155L161.217,135.512L161.217,135.512z M159.652,139.464l-0.118,0.242l-0.077,0.155l-0.078,0.155l-0.08,0.154
					l-0.08,0.153l-0.082,0.153l-0.082,0.152l-0.083,0.152l-0.083,0.151l-0.086,0.15l-0.085,0.15l-0.086,0.15l-0.089,0.148
					l-0.088,0.148l-0.089,0.147l-0.076,0.125l1.238,0.762l0.08-0.132l0.094-0.155l0.093-0.156l0.093-0.157l0.09-0.157l0.091-0.158
					l0.089-0.158l0.087-0.159l0.088-0.159l0.087-0.16l0.086-0.161l0.084-0.161l0.083-0.162l0.082-0.162l0.082-0.163l0.123-0.251
					L159.652,139.464L159.652,139.464z M157.52,143.136l-0.093,0.134l-0.099,0.141l-0.1,0.141l-0.1,0.139l-0.102,0.14l-0.101,0.139
					l-0.206,0.275l-0.105,0.137l-0.104,0.136l-0.212,0.27l-0.107,0.134l-0.107,0.133c-0.094,0.113-0.188,0.227-0.281,0.339
					l1.11,0.938l0.183-0.219l0.115-0.14l0.112-0.14l0.113-0.141l0.112-0.141l0.11-0.143l0.11-0.143l0.11-0.144l0.108-0.145
					l0.107-0.145l0.106-0.146l0.107-0.146l0.104-0.146l0.105-0.147l0.196-0.283L157.52,143.136L157.52,143.136z M154.863,146.457
					l-0.137,0.148l-0.118,0.124l-0.118,0.124l-0.12,0.124l-0.121,0.122l-0.242,0.243l-0.122,0.12l-0.124,0.12l-0.123,0.119
					l-0.124,0.118l-0.252,0.234l-0.127,0.116l-0.127,0.115l-0.172,0.153l0.959,1.093l0.185-0.165l0.134-0.121l0.133-0.122
					l0.132-0.122l0.133-0.123l0.131-0.124l0.13-0.125l0.129-0.126l0.257-0.253l0.254-0.256l0.124-0.129l0.125-0.13l0.124-0.131
					l0.145-0.153L154.863,146.457L154.863,146.457z M151.75,149.348c-0.107,0.086-0.215,0.171-0.323,0.255l-0.137,0.105
					l-0.137,0.104l-0.275,0.206l-0.139,0.102l-0.139,0.101l-0.14,0.1l-0.141,0.1l-0.142,0.098l-0.142,0.098l-0.143,0.097
					l-0.143,0.096l-0.144,0.095l-0.154,0.101l0.784,1.224l0.169-0.11l0.151-0.1l0.15-0.101l0.149-0.102l0.148-0.103l0.148-0.104
					l0.148-0.104l0.146-0.105l0.146-0.106l0.146-0.107l0.145-0.107l0.144-0.109l0.143-0.109l0.143-0.111l0.143-0.111l0.195-0.155
					L151.75,149.348L151.75,149.348z M148.245,151.748l-0.256,0.146l-0.15,0.085l-0.151,0.084l-0.151,0.083l-0.151,0.082
					l-0.153,0.081l-0.153,0.081l-0.153,0.08l-0.155,0.079l-0.154,0.078l-0.155,0.076l-0.156,0.076l-0.158,0.075
					c-0.139,0.066-0.278,0.131-0.42,0.195l0.599,1.325l0.28-0.129l0.165-0.078l0.164-0.079l0.164-0.08l0.164-0.081l0.162-0.081
					l0.162-0.083l0.163-0.083l0.16-0.085l0.161-0.085l0.159-0.087l0.16-0.087l0.159-0.088l0.158-0.089l0.263-0.151L148.245,151.748
					L148.245,151.748z M144.421,153.602l-0.192,0.076l-0.163,0.063l-0.164,0.061l-0.164,0.061l-0.165,0.06l-0.164,0.058
					l-0.165,0.058l-0.167,0.057l-0.166,0.056l-0.167,0.055l-0.167,0.054l-0.168,0.053l-0.167,0.052l-0.17,0.051l-0.169,0.05
					l-0.166,0.048l0.397,1.398l0.175-0.05l0.178-0.052l0.177-0.053l0.177-0.054l0.177-0.055l0.176-0.057l0.175-0.057l0.175-0.059
					l0.175-0.06l0.174-0.061l0.173-0.062l0.174-0.063l0.172-0.064l0.173-0.065l0.171-0.065l0.201-0.079L144.421,153.602
					L144.421,153.602z M140.364,154.866l-0.175,0.04l-0.174,0.038l-0.174,0.037l-0.174,0.037l-0.175,0.035l-0.176,0.034
					l-0.176,0.033l-0.176,0.032l-0.177,0.031l-0.175,0.03l-0.178,0.029l-0.178,0.027l-0.178,0.026l-0.178,0.026l-0.179,0.024
					l-0.149,0.02l0.184,1.442l0.159-0.02l0.186-0.026l0.188-0.027l0.186-0.028l0.186-0.029l0.187-0.03l0.185-0.031l0.186-0.032
					l0.185-0.034l0.186-0.035l0.184-0.036l0.184-0.037l0.184-0.038l0.183-0.039l0.182-0.041l0.185-0.042L140.364,154.866
					L140.364,154.866z M136.167,155.51l-0.245,0.018l-0.183,0.012l-0.182,0.011l-0.183,0.01l-0.184,0.009l-0.184,0.007l-0.184,0.007
					l-0.184,0.005l-0.184,0.004l-0.185,0.003l-0.185,0.002l-0.186,0.001l-0.185-0.001l-0.186-0.002l-0.196-0.003l-0.037,1.453
					l0.215,0.003l0.194,0.001l0.194,0.001l0.194-0.001l0.194-0.001l0.193-0.003l0.194-0.005l0.192-0.005l0.193-0.007l0.192-0.008
					l0.192-0.009l0.191-0.011l0.191-0.011l0.191-0.013l0.254-0.018L136.167,155.51L136.167,155.51z M131.915,155.53l-0.215-0.015
					l-0.182-0.015l-0.181-0.016l-0.181-0.017l-0.181-0.017l-0.181-0.02l-0.18-0.02l-0.18-0.021l-0.179-0.022l-0.179-0.023
					l-0.179-0.024l-0.178-0.026l-0.178-0.026l-0.178-0.027l-0.266-0.043l-0.246,1.432l0.283,0.047l0.186,0.029l0.187,0.028
					l0.186,0.027l0.188,0.026l0.189,0.024l0.188,0.023l0.189,0.022l0.189,0.021l0.189,0.02l0.189,0.018l0.19,0.018l0.19,0.016
					l0.19,0.015l0.224,0.016L131.915,155.53L131.915,155.53z M127.711,154.927l-0.271-0.061l-0.172-0.04l-0.173-0.042l-0.172-0.043
					l-0.171-0.043l-0.172-0.044l-0.171-0.046l-0.17-0.047l-0.17-0.047l-0.17-0.049l-0.169-0.05l-0.169-0.051l-0.167-0.052
					l-0.169-0.053l-0.248-0.081l-0.458,1.379l0.267,0.087l0.177,0.055l0.177,0.054l0.177,0.053l0.178,0.052l0.179,0.051l0.178,0.05
					l0.18,0.049l0.18,0.048l0.18,0.046l0.181,0.046l0.181,0.045l0.181,0.043l0.182,0.042l0.278,0.063L127.711,154.927
					L127.711,154.927z M123.643,153.704l-0.229-0.089l-0.163-0.064l-0.161-0.065l-0.161-0.066l-0.16-0.068l-0.161-0.068
					l-0.159-0.069l-0.159-0.07l-0.158-0.071L121.972,153l-0.314-0.147l-0.157-0.075l-0.156-0.076l-0.155-0.076l-0.139-0.07
					l-0.655,1.297l0.147,0.074l0.164,0.081l0.163,0.08l0.165,0.079l0.165,0.078l0.165,0.077l0.167,0.076l0.166,0.075l0.168,0.074
					l0.168,0.073l0.168,0.071l0.169,0.071l0.17,0.069l0.169,0.069l0.171,0.067l0.237,0.092L123.643,153.704L123.643,153.704z
					 M119.803,151.889l-0.139-0.081l-0.15-0.086l-0.148-0.087l-0.147-0.088l-0.148-0.089l-0.147-0.09l-0.146-0.091l-0.146-0.092
					l-0.146-0.092l-0.145-0.094l-0.145-0.094l-0.145-0.095l-0.142-0.096l-0.144-0.097l-0.141-0.098l-0.216-0.151l-0.842,1.185
					l0.229,0.161l0.148,0.103l0.149,0.102l0.15,0.101l0.151,0.1l0.151,0.099l0.152,0.098l0.152,0.097l0.153,0.097l0.154,0.095
					l0.154,0.095l0.155,0.093l0.156,0.093l0.156,0.092l0.157,0.091l0.139,0.081L119.803,151.889L119.803,151.889z M116.271,149.521
					l-0.165-0.13l-0.134-0.108l-0.134-0.108l-0.265-0.219l-0.132-0.11l-0.13-0.111l-0.13-0.112l-0.13-0.113l-0.129-0.113
					l-0.128-0.115l-0.127-0.115l-0.127-0.116l-0.252-0.234l-0.159-0.152l-1.009,1.046l0.171,0.163l0.133,0.123l0.132,0.122
					l0.133,0.122l0.134,0.121l0.135,0.121l0.136,0.119l0.136,0.118l0.136,0.118l0.138,0.117l0.139,0.116l0.139,0.115l0.14,0.115
					l0.14,0.113l0.142,0.113l0.171,0.135L116.271,149.521L116.271,149.521z M113.13,146.661c-0.097-0.102-0.191-0.204-0.287-0.308
					l-0.116-0.127l-0.114-0.127l-0.113-0.128l-0.114-0.128l-0.113-0.129l-0.112-0.131l-0.11-0.13l-0.11-0.131l-0.22-0.265
					l-0.107-0.133l-0.107-0.134c-0.073-0.092-0.146-0.185-0.218-0.277l-1.153,0.885l0.121,0.156l0.112,0.141l0.112,0.141l0.113,0.14
					l0.115,0.14l0.115,0.139l0.116,0.138l0.116,0.137l0.118,0.137l0.119,0.136l0.118,0.135l0.121,0.134l0.121,0.134l0.121,0.133
					l0.122,0.132l0.177,0.188L113.13,146.661L113.13,146.661z M110.445,143.369l-0.167-0.24l-0.098-0.143l-0.095-0.143l-0.096-0.144
					l-0.095-0.144l-0.093-0.145l-0.093-0.145l-0.092-0.146l-0.091-0.146l-0.09-0.148l-0.09-0.147l-0.088-0.148l-0.088-0.148
					l-0.086-0.15l-0.149-0.263l-1.269,0.709l0.067,0.121l0.091,0.158l0.09,0.157l0.093,0.157l0.093,0.156l0.093,0.155l0.096,0.154
					l0.096,0.154l0.095,0.154l0.099,0.153l0.098,0.152l0.1,0.151l0.1,0.151l0.102,0.15l0.102,0.149l0.171,0.248L110.445,143.369
					L110.445,143.369z M108.272,139.714l-0.08-0.164l-0.076-0.156l-0.074-0.156l-0.146-0.314l-0.072-0.159l-0.071-0.158l-0.07-0.159
					l-0.068-0.16l-0.069-0.16l-0.067-0.161l-0.066-0.161l-0.065-0.162l-0.064-0.162l-0.063-0.163l-0.076-0.199l-1.362,0.508
					l0.083,0.216l0.066,0.171l0.068,0.17l0.068,0.17l0.07,0.169l0.07,0.169l0.072,0.168l0.073,0.168l0.072,0.167l0.075,0.167
					l0.076,0.167l0.076,0.165l0.078,0.165l0.078,0.164l0.08,0.164l0.085,0.171L108.272,139.714L108.272,139.714z M106.672,135.782
					l-0.089-0.282l-0.052-0.168l-0.051-0.169l-0.05-0.169l-0.049-0.169l-0.048-0.17l-0.047-0.17l-0.046-0.171l-0.044-0.171
					l-0.044-0.171l-0.043-0.172l-0.041-0.172l-0.041-0.172l-0.038-0.173l-0.052-0.236l-1.423,0.3l0.055,0.254l0.042,0.182
					l0.043,0.182l0.043,0.181l0.045,0.181l0.046,0.181l0.047,0.18l0.049,0.18l0.048,0.179l0.05,0.179l0.052,0.178l0.052,0.178
					l0.055,0.177l0.054,0.177l0.092,0.292L106.672,135.782L106.672,135.782z M105.674,131.653l-0.048-0.303l-0.026-0.178
					l-0.026-0.178l-0.024-0.178l-0.022-0.178l-0.022-0.179l-0.021-0.18l-0.021-0.18l-0.02-0.18l-0.017-0.181l-0.017-0.181
					l-0.017-0.181l-0.014-0.182l-0.014-0.182l-0.012-0.179l-1.451,0.092l0.014,0.189l0.013,0.191l0.016,0.19l0.017,0.19l0.017,0.189
					l0.02,0.19l0.02,0.189l0.021,0.189l0.022,0.189l0.022,0.189l0.024,0.188l0.025,0.188l0.026,0.188l0.029,0.186l0.049,0.312
					L105.674,131.653L105.674,131.653z M105.3,127.418l-0.002-0.24l-0.001-0.185l0.001-0.185l0.001-0.185l0.003-0.185l0.004-0.184
					l0.005-0.184l0.007-0.184l0.008-0.183l0.009-0.183l0.009-0.183l0.012-0.183l0.012-0.182l0.014-0.182l0.016-0.205l-1.447-0.128
					l-0.019,0.222l-0.013,0.191l-0.014,0.192l-0.011,0.191l-0.011,0.192l-0.01,0.192l-0.007,0.192l-0.007,0.193l-0.006,0.193
					l-0.005,0.194l-0.003,0.194l-0.002,0.194v0.194v0.194l0.003,0.249L105.3,127.418L105.3,127.418z M105.549,123.174l0.024-0.182
					l0.026-0.178l0.026-0.177l0.027-0.178l0.029-0.177l0.029-0.177l0.031-0.176l0.031-0.176l0.033-0.176l0.035-0.175l0.034-0.175
					l0.037-0.174l0.037-0.174l0.039-0.174l0.038-0.173l0.034-0.145l-1.415-0.336l-0.035,0.153l-0.042,0.182l-0.039,0.183
					l-0.04,0.183l-0.037,0.183l-0.038,0.184l-0.035,0.184l-0.034,0.184l-0.035,0.186l-0.032,0.185l-0.031,0.185l-0.029,0.187
					l-0.029,0.186l-0.029,0.187l-0.026,0.188l-0.026,0.191L105.549,123.174L105.549,123.174z M106.423,119.017l0.058-0.194
					l0.051-0.169l0.052-0.168l0.053-0.167l0.053-0.167l0.055-0.166l0.056-0.167l0.057-0.166l0.058-0.165l0.06-0.165l0.06-0.164
					l0.06-0.164l0.063-0.164l0.063-0.163l0.063-0.162l0.064-0.162l-1.346-0.55l-0.071,0.179l-0.066,0.171l-0.065,0.171l-0.065,0.172
					l-0.063,0.172l-0.063,0.173l-0.063,0.174l-0.06,0.173l-0.061,0.175l-0.059,0.174l-0.057,0.176l-0.057,0.176l-0.056,0.176
					l-0.054,0.177l-0.055,0.177l-0.059,0.203L106.423,119.017L106.423,119.017z M107.906,115.04l0.136-0.292l0.074-0.156
					l0.076-0.156l0.076-0.155l0.078-0.155l0.078-0.155l0.08-0.154l0.08-0.153l0.082-0.153l0.082-0.152l0.082-0.151l0.084-0.151
					l0.086-0.15l0.085-0.15l0.133-0.228l-1.252-0.74l-0.141,0.244l-0.091,0.158l-0.089,0.159l-0.089,0.159l-0.087,0.159l-0.086,0.16
					l-0.086,0.161l-0.084,0.161l-0.083,0.162l-0.082,0.163l-0.082,0.163l-0.081,0.163l-0.08,0.164l-0.078,0.165l-0.078,0.165
					l-0.062,0.134L107.906,115.04L107.906,115.04z M109.967,111.322l0.119-0.179l0.095-0.143l0.098-0.142l0.098-0.142l0.099-0.141
					l0.1-0.141l0.1-0.14l0.102-0.14l0.101-0.139l0.206-0.275l0.104-0.137l0.105-0.136l0.212-0.27l0.132-0.165l-1.127-0.919
					l-0.143,0.179l-0.112,0.142l-0.11,0.142l-0.11,0.143l-0.11,0.144l-0.108,0.144l-0.107,0.145l-0.106,0.146l-0.106,0.146
					l-0.104,0.147l-0.104,0.148l-0.104,0.148l-0.103,0.149l-0.102,0.15l-0.102,0.15l-0.123,0.186L109.967,111.322L109.967,111.322z
					 M112.555,107.952l0.172-0.192l0.116-0.127l0.234-0.251l0.118-0.124l0.118-0.124l0.12-0.123l0.121-0.123l0.241-0.243l0.123-0.12
					l0.123-0.12l0.123-0.119l0.125-0.118c0.078-0.073,0.171-0.17,0.252-0.234l-0.978-1.075l-0.139,0.128l-0.133,0.123l-0.131,0.124
					l-0.13,0.125l-0.129,0.125l-0.257,0.254l-0.254,0.256l-0.124,0.129l-0.125,0.13l-0.124,0.131l-0.124,0.131l-0.122,0.133
					l-0.121,0.133l-0.179,0.199L112.555,107.952L112.555,107.952z M115.609,104.999l0.229-0.189l0.134-0.108l0.134-0.107
					l0.271-0.212l0.137-0.105l0.136-0.104l0.276-0.206l0.138-0.102l0.139-0.101l0.141-0.1l0.141-0.1l0.142-0.099l0.252-0.172
					l-0.814-1.205l-0.117,0.08l-0.148,0.103l-0.148,0.104l-0.148,0.105l-0.146,0.105l-0.146,0.106l-0.146,0.107l-0.146,0.108
					l-0.144,0.108l-0.145,0.109l-0.142,0.11l-0.144,0.111l-0.141,0.112l-0.142,0.112l-0.14,0.113l-0.237,0.195L115.609,104.999
					L115.609,104.999z M119.066,102.531l0.151-0.092l0.147-0.088l0.148-0.087l0.15-0.087l0.149-0.086l0.151-0.085l0.151-0.084
					l0.15-0.083l0.152-0.082l0.153-0.081l0.153-0.08l0.153-0.079l0.155-0.079l0.154-0.078l0.155-0.077l0.216-0.104l-0.624-1.314
					l-0.229,0.112l-0.164,0.081l-0.163,0.082l-0.161,0.082l-0.163,0.084l-0.161,0.084l-0.16,0.085l-0.159,0.086l-0.161,0.087
					l-0.158,0.088l-0.158,0.089l-0.157,0.09l-0.157,0.091l-0.156,0.092l-0.156,0.093l-0.15,0.091L119.066,102.531L119.066,102.531z
					 M122.854,100.599l0.235-0.098l0.161-0.066l0.163-0.064l0.162-0.063l0.163-0.063l0.164-0.062l0.164-0.061l0.165-0.06
					l0.164-0.059l0.165-0.058l0.166-0.057l0.166-0.056l0.168-0.055l0.166-0.054l0.292-0.091l-0.423-1.391l-0.309,0.097l-0.177,0.056
					l-0.174,0.058l-0.175,0.058l-0.175,0.06l-0.175,0.061l-0.173,0.061l-0.173,0.063l-0.173,0.064l-0.172,0.065l-0.171,0.065
					l-0.171,0.067l-0.171,0.068l-0.169,0.068l-0.245,0.102L122.854,100.599L122.854,100.599z M126.884,99.255l0.212-0.053
					l0.173-0.042l0.172-0.04l0.174-0.04l0.174-0.038l0.174-0.038l0.174-0.036l0.175-0.036l0.176-0.034l0.175-0.033l0.177-0.032
					l0.175-0.031l0.177-0.03l0.178-0.029l0.295-0.045l-0.21-1.438l-0.127,0.019l-0.186,0.029l-0.187,0.03l-0.186,0.031l-0.185,0.032
					l-0.185,0.034l-0.186,0.034l-0.184,0.036l-0.184,0.037l-0.184,0.038l-0.183,0.039l-0.183,0.04l-0.182,0.041l-0.182,0.043
					l-0.181,0.043l-0.222,0.055L126.884,99.255z"/>
				<path style="fill-rule:evenodd;clip-rule:evenodd;fill:#316360;" d="M384.684,158.761c6.691,0.156,12.758,3.284,17.107,8.017
					c4.34,4.724,6.979,11.058,6.824,17.637c-0.244,10.52-5.539,14.814-10.48,18.82c-3.918,3.178-7.592,6.158-7.734,12.265
					l-0.004,0.105l-0.01,0.069c-0.34,2.013-1.082,3.54-2.221,4.58c-0.889,0.809-1.984,1.299-3.285,1.471l0.063,0.009
					c0.355,0.056,0.699,0.135,1.027,0.235c1.668,0.507,2.971,1.545,3.869,2.857c0.953,1.39,1.447,3.094,1.43,4.79
					c-0.01,1.112-0.24,2.263-0.691,3.325c-0.428,1.008-1.057,1.945-1.883,2.705c-1.477,1.357-3.402,1.965-5.328,1.919
					c-1.117-0.025-2.236-0.272-3.264-0.719c-1.043-0.453-1.996-1.107-2.766-1.946c-1.234-1.342-2.01-3.142-1.967-5.317h-0.004
					l0.006-0.024c0.059-2.461,0.986-4.468,2.514-5.854c1.313-1.192,3.053-1.909,5.041-2.043c-1.699-0.467-3.006-1.155-3.918-2.065
					c-1.065-1.061-1.58-2.374-1.543-3.938l0.035-1.509c0.256-10.915,5.656-15.146,10.623-19.038
					c3.813-2.988,7.342-5.752,7.478-11.563c0.074-3.164-1.236-6.018-3.336-8.122c-2.191-2.196-5.23-3.577-8.451-3.651
					c-2.277-0.054-4.313,0.499-6.109,1.658c-1.795,1.158-3.375,2.935-4.742,5.333l-1.551,6.777l-0.18,0.219
					c-0.881,1.08-1.795,1.894-2.74,2.439c-1.01,0.584-2.053,0.866-3.127,0.84l-0.15-0.003l-0.105-0.025
					c-1.961-0.468-3.447-1.232-4.461-2.287c-1.084-1.128-1.603-2.535-1.565-4.222c0.092-3.928,1.139-7.576,3.137-10.942
					c1.979-3.332,4.889-6.382,8.725-9.147l0.078-0.056l0.064-0.034c2.33-1.231,4.621-2.145,6.879-2.74
					C380.242,158.985,382.48,158.71,384.684,158.761L384.684,158.761z M400.012,168.415c-3.93-4.276-9.383-7.102-15.375-7.241
					c-1.975-0.046-3.992,0.203-6.053,0.748c-2.057,0.542-4.156,1.379-6.303,2.507c-3.52,2.549-6.18,5.336-7.977,8.363
					c-1.787,3.011-2.725,6.265-2.805,9.759c-0.025,1.021,0.273,1.855,0.891,2.5c0.666,0.693,1.721,1.219,3.164,1.577
					c0.576-0.013,1.152-0.186,1.729-0.519c0.635-0.366,1.268-0.92,1.902-1.66l1.502-6.572l0.082-0.148
					c1.584-2.82,3.459-4.93,5.631-6.332c2.207-1.423,4.693-2.102,7.463-2.037c3.861,0.09,7.502,1.739,10.117,4.362
					c2.539,2.547,4.127,6.014,4.035,9.873c-0.162,6.96-4.125,10.063-8.404,13.417c-4.537,3.554-9.467,7.417-9.695,17.183
					l-0.035,1.509c-0.021,0.879,0.258,1.605,0.832,2.178c0.643,0.642,1.658,1.141,3.043,1.498c1.182,0.003,2.109-0.302,2.781-0.916
					c0.719-0.655,1.205-1.697,1.453-3.126c0.209-7.153,4.279-10.456,8.621-13.976c4.525-3.669,9.373-7.601,9.592-16.995
					C406.342,178.43,403.947,172.7,400.012,168.415L400.012,168.415z M384.574,224.12c-0.23-0.037-0.473-0.059-0.723-0.066v0.004
					l-0.023-0.004l-0.006-0.001c-1.748-0.04-3.248,0.479-4.307,1.44c-1.045,0.948-1.684,2.348-1.729,4.09h0.004l-0.006,0.023
					c-0.035,1.508,0.492,2.744,1.332,3.657c0.543,0.591,1.211,1.051,1.941,1.369c0.744,0.323,1.553,0.502,2.355,0.52
					c1.334,0.031,2.652-0.376,3.642-1.286c0.565-0.519,0.998-1.167,1.297-1.872c0.328-0.772,0.496-1.603,0.504-2.397
					c0.012-1.211-0.34-2.423-1.014-3.409c-0.604-0.88-1.471-1.575-2.572-1.91C385.049,224.211,384.816,224.158,384.574,224.12z"/>
				<path style="fill-rule:evenodd;clip-rule:evenodd;fill:#465B87;" d="M111.502,161.15c11.784-0.485,22.089,9.664,22.568,21.294
					c0.715,17.345-15.583,16.649-15.034,29.929c-0.334,3.257-1.976,4.956-4.892,5.075c-3.137-0.564-4.762-1.982-4.854-4.254
					l-0.058-1.402c-0.733-17.789,15.488-16.575,14.957-29.474c-0.274-6.644-6.347-11.552-12.813-11.286
					c-4.688,0.193-8.244,2.826-10.681,7.913l-1.017,6.288c-1.343,1.879-2.804,2.859-4.382,2.924
					c-3.268-0.559-4.944-2.104-5.048-4.618c-0.284-6.896,2.852-13.045,9.392-18.431C103.67,162.635,107.618,161.31,111.502,161.15
					L111.502,161.15z M114.521,219.532c0.591-0.024,1.145,0.03,1.66,0.151c2.729,0.641,4.366,3.153,4.51,5.747
					c0.094,1.711-0.463,3.593-1.721,4.909c-3.351,3.502-10.555,1.605-10.79-4.122C108.018,222.303,110.679,219.69,114.521,219.532z"
					/>
				<path style="fill-rule:evenodd;clip-rule:evenodd;fill:#CFDDEB;" d="M360.296,48.503c-0.84-0.117-1.656-0.172-2.502-0.167
					l0.01,1.211c0.789-0.004,1.547,0.047,2.328,0.156L360.296,48.503L360.296,48.503z M358.101,95.568l-0.039,0.003
					c-0.887,0.09-1.728,0.332-2.508,0.774l0.605,1.05c0.621-0.355,1.311-0.549,2.022-0.619l0.031-0.003L358.101,95.568
					L358.101,95.568z M354.468,97.165c-0.66,0.646-1.123,1.439-1.383,2.323l1.162,0.337v0.003c0.203-0.687,0.555-1.296,1.068-1.798
					L354.468,97.165L354.468,97.165z M352.849,100.804c-0.066,0.919,0.041,1.792,0.391,2.65l1.117-0.464
					c-0.277-0.68-0.352-1.372-0.301-2.101L352.849,100.804L352.849,100.804z M353.919,104.638c0.547,0.721,1.287,1.289,2.104,1.673
					l0.512-1.098c-0.641-0.301-1.225-0.746-1.654-1.313L353.919,104.638L353.919,104.638z M357.29,106.744
					c0.877,0.2,1.791,0.206,2.67,0.011l-0.268-1.181c-0.705,0.156-1.434,0.148-2.139-0.012L357.29,106.744L357.29,106.744z
					 M361.243,106.292c0.453-0.233,0.853-0.524,1.221-0.88c0.295-0.291,0.549-0.607,0.77-0.957l-1.025-0.646
					c-0.168,0.268-0.367,0.517-0.594,0.739c-0.279,0.272-0.584,0.492-0.932,0.67L361.243,106.292L361.243,106.292z M361.614,104.547
					l0.85,0.865L361.614,104.547L361.614,104.547z M363.815,103.238c0.242-0.706,0.361-1.442,0.344-2.189
					c-0.004-0.152-0.012-0.303-0.027-0.454l-1.205,0.121c0.012,0.12,0.02,0.241,0.021,0.361c0.014,0.604-0.082,1.197-0.279,1.768
					L363.815,103.238L363.815,103.238z M363.856,99.281c-0.289-0.864-0.754-1.653-1.41-2.291l-0.842,0.871
					c0.27,0.256,0.518,0.589,0.703,0.911c0.166,0.286,0.295,0.576,0.398,0.888L363.856,99.281L363.856,99.281z M361.347,96.174
					c-0.361-0.197-0.73-0.345-1.127-0.452c-0.477-0.129-1.006-0.193-1.498-0.186l0.012,1.211c0.408,0,0.775,0.04,1.172,0.144
					c0.305,0.083,0.584,0.194,0.861,0.346L361.347,96.174L361.347,96.174z M357.019,48.362c-0.836,0.046-1.666,0.158-2.486,0.324
					l0.242,1.187c0.764-0.154,1.535-0.258,2.315-0.301L357.019,48.362L357.019,48.362z M353.315,48.976
					c-0.801,0.219-1.592,0.488-2.361,0.8l0.455,1.122c0.725-0.295,1.473-0.548,2.227-0.754L353.315,48.976L353.315,48.976z
					 M349.815,50.271c-0.68,0.316-1.342,0.663-1.992,1.034l-0.037,0.021l-0.217,0.167l0.748,0.954l0.143-0.111
					c0.609-0.347,1.232-0.671,1.867-0.967L349.815,50.271L349.815,50.271z M346.61,52.275c-0.627,0.536-1.234,1.098-1.811,1.69
					l0.867,0.844c0.553-0.565,1.131-1.101,1.732-1.613L346.61,52.275L346.61,52.275z M343.954,54.879
					c-0.547,0.626-1.061,1.282-1.529,1.97l1.002,0.68c0.441-0.648,0.926-1.265,1.441-1.855L343.954,54.879L343.954,54.879z
					 M341.755,57.906c-0.424,0.72-0.799,1.477-1.111,2.251l1.125,0.451c0.289-0.718,0.641-1.424,1.031-2.089L341.755,57.906
					L341.755,57.906z M340.218,61.34c-0.254,0.803-0.443,1.616-0.57,2.449l1.197,0.18c0.117-0.771,0.293-1.521,0.527-2.265
					L340.218,61.34L340.218,61.34z M339.507,65.038c-0.063,0.829-0.115,1.804,0.113,2.619l1.166-0.33
					c-0.184-0.659-0.121-1.539-0.072-2.201L339.507,65.038L339.507,65.038z M340.251,68.941c0.566,0.749,1.355,1.237,2.225,1.569
					l0.43-1.132c-0.648-0.246-1.268-0.612-1.693-1.172L340.251,68.941L340.251,68.941z M343.722,70.877l0.178,0.038l0.145,0.012
					c0.875-0.012,1.711-0.329,2.418-0.837l-0.699-0.988c-0.512,0.361-1.061,0.59-1.688,0.613l-0.094-0.021L343.722,70.877
					L343.722,70.877z M344.026,70.928l-0.065,0.001l-0.063-0.013L344.026,70.928L344.026,70.928z M347.462,69.215
					c0.268-0.282,0.504-0.576,0.74-0.885l0.309-1.586l-1.189-0.231l-0.254,1.306c-0.156,0.195-0.314,0.383-0.486,0.564
					L347.462,69.215L347.462,69.215z M348.741,65.555l-1.188-0.231l0.463-2.378l1.188,0.231L348.741,65.555L348.741,65.555z
					 M349.708,62.317c0.398-0.654,0.855-1.292,1.365-1.862l-0.902-0.809c-0.561,0.632-1.057,1.317-1.496,2.04L349.708,62.317
					L349.708,62.317z M351.88,59.645c0.555-0.496,1.191-0.943,1.859-1.271l-0.535-1.086c-0.777,0.388-1.482,0.874-2.129,1.453
					L351.88,59.645L351.88,59.645z M354.78,57.945c0.725-0.241,1.457-0.364,2.217-0.41l-0.061-1.209
					c-0.863,0.049-1.713,0.196-2.533,0.469L354.78,57.945L354.78,57.945z M358.134,57.541c0.764,0.051,1.506,0.19,2.234,0.419
					l0.369-1.154c-0.818-0.259-1.66-0.417-2.518-0.474L358.134,57.541L358.134,57.541z M361.435,58.366
					c0.691,0.31,1.352,0.707,1.951,1.169l0.742-0.957c-0.676-0.521-1.416-0.967-2.193-1.316L361.435,58.366L361.435,58.366z
					 M364.243,60.282c0.547,0.539,1.01,1.12,1.41,1.775l1.039-0.624c-0.445-0.735-0.986-1.408-1.596-2.011L364.243,60.282
					L364.243,60.282z M366.175,63.063c0.305,0.686,0.516,1.42,0.623,2.162l1.199-0.169c-0.125-0.854-0.363-1.691-0.711-2.481
					L366.175,63.063L366.175,63.063z M366.886,66.353l1.211-0.011v0.137v0.127l-0.002,0.126l-0.002,0.125l-0.006,0.123l-0.004,0.123
					l-0.008,0.122l-0.008,0.121l-0.01,0.12l-0.01,0.119l-0.012,0.118l-0.014,0.117l-0.014,0.116l-0.016,0.115l-0.016,0.114
					l-0.017,0.113l-0.02,0.112l-0.02,0.111l-0.02,0.11l-0.022,0.109l-0.037,0.17l-1.182-0.271l0.031-0.143l0.02-0.096l0.018-0.098
					l0.018-0.098l0.016-0.099l0.016-0.1l0.014-0.101l0.016-0.102l0.012-0.103l0.012-0.103l0.01-0.105l0.01-0.106l0.008-0.106
					l0.008-0.108l0.006-0.109l0.006-0.11l0.004-0.111l0.002-0.113l0.002-0.113v-0.115V66.353L366.886,66.353z M366.343,69.699
					c-0.025,0.068-0.053,0.136-0.08,0.204l-0.068,0.165l-0.035,0.082l-0.037,0.081c-0.037,0.08-0.076,0.16-0.113,0.24
					c-0.215,0.426-0.455,0.828-0.734,1.216l0.982,0.71c0.16-0.224,0.311-0.452,0.453-0.687l0.051-0.086l0.098-0.172l0.049-0.087
					l0.049-0.088l0.047-0.089l0.045-0.089l0.045-0.09l0.045-0.091l0.045-0.091l0.041-0.093l0.043-0.093l0.041-0.094l0.039-0.095
					l0.041-0.095l0.037-0.097l0.051-0.132L366.343,69.699L366.343,69.699z M364.56,72.586c-0.516,0.585-1.09,1.132-1.674,1.646
					l0.801,0.909c0.623-0.552,1.227-1.126,1.777-1.75L364.56,72.586L364.56,72.586z M361.977,75.014
					c-0.621,0.523-1.246,1.039-1.857,1.573l0.797,0.911c0.605-0.529,1.227-1.04,1.842-1.558L361.977,75.014L361.977,75.014z
					 M359.204,77.415c-0.607,0.573-1.184,1.167-1.717,1.811l0.934,0.771c0.502-0.605,1.045-1.163,1.615-1.702L359.204,77.415
					L359.204,77.415z M356.722,80.226c-0.223,0.315-0.428,0.64-0.623,0.971l-0.061,0.101l-0.057,0.102l-0.057,0.103l-0.057,0.104
					l-0.057,0.105l-0.057,0.105l-0.055,0.106l-0.053,0.107l-0.055,0.109l-0.053,0.109l-0.08,0.172l1.103,0.501
					c0.039-0.085,0.078-0.168,0.119-0.252c0.24-0.488,0.498-0.941,0.793-1.397c0.078-0.118,0.156-0.236,0.24-0.351L356.722,80.226
					L356.722,80.226z M354.985,83.592l-0.059,0.165l-0.041,0.123l-0.039,0.125l-0.039,0.125l-0.041,0.126l-0.037,0.127l-0.037,0.128
					l-0.035,0.13l-0.035,0.131l-0.035,0.132l-0.031,0.133l-0.033,0.134l-0.031,0.135l-0.029,0.137l-0.029,0.137l-0.029,0.139
					l-0.027,0.14l-0.029,0.17l1.193,0.206l0.027-0.149l0.025-0.13l0.025-0.129l0.027-0.127l0.027-0.127l0.029-0.125l0.029-0.123
					l0.031-0.123l0.031-0.121l0.031-0.121l0.033-0.119l0.035-0.118l0.033-0.117l0.037-0.116l0.035-0.115l0.037-0.114l0.039-0.113
					l0.053-0.155L354.985,83.592L354.985,83.592z M354.169,87.269l-0.021,0.211l-0.016,0.154l-0.012,0.156l-0.014,0.157l-0.01,0.159
					l-0.01,0.16l-0.01,0.162l-0.006,0.162l-0.006,0.163l-0.006,0.166l-0.004,0.166l-0.004,0.168v0.17l-0.002,0.17l0.002,0.163
					l1.211-0.011V89.59v-0.162v-0.161l0.004-0.159l0.004-0.158l0.004-0.156l0.006-0.155l0.008-0.153l0.008-0.152l0.01-0.15
					l0.01-0.149l0.012-0.147l0.012-0.147l0.014-0.145l0.022-0.201L354.169,87.269L354.169,87.269z M354.063,90.98
					c0.027,1.009,0.391,1.883,1.119,2.585l0.838-0.876c-0.5-0.481-0.728-1.056-0.746-1.747L354.063,90.98L354.063,90.98z
					 M356.317,94.357c0.637,0.325,1.336,0.538,2.033,0.687l0.066,0.014c0.18-0.001,0.357-0.006,0.539-0.022l-0.102-1.206
					c-0.105,0.008-0.211,0.014-0.316,0.016c-0.572-0.126-1.15-0.302-1.672-0.569L356.317,94.357L356.317,94.357z M360.3,94.748
					c0.928-0.346,1.619-0.957,2.111-1.813l-1.053-0.597c-0.34,0.604-0.836,1.035-1.486,1.277L360.3,94.748L360.3,94.748z
					 M362.927,91.683c0.109-0.385,0.182-0.768,0.234-1.164v-0.163v-0.119l0.002-0.117l0.004-0.116l0.004-0.115l0.004-0.113
					l0.006-0.113l0.008-0.112l0.01-0.111l0.008-0.109l0.016-0.143l-1.205-0.135l-0.016,0.168l-0.012,0.123l-0.01,0.122l-0.008,0.125
					l-0.006,0.125l-0.006,0.126l-0.004,0.127l-0.004,0.127l-0.002,0.13v0.13v0.085c-0.043,0.309-0.104,0.612-0.188,0.913
					L362.927,91.683L362.927,91.683z M363.405,88.063l0.039-0.169l0.023-0.096l0.025-0.095l0.025-0.094l0.027-0.093l0.027-0.093
					l0.027-0.092l0.031-0.091l0.029-0.09l0.031-0.09l0.031-0.089l0.033-0.088l0.033-0.087l0.07-0.174l0.072-0.17l0.076-0.168
					c0.055-0.115,0.109-0.231,0.168-0.344l-1.07-0.565l-0.06,0.118l-0.047,0.094l-0.088,0.188l-0.045,0.096l-0.043,0.096
					l-0.041,0.097l-0.041,0.097l-0.041,0.098l-0.039,0.099l-0.039,0.1l-0.035,0.101l-0.037,0.101l-0.035,0.102l-0.035,0.103
					l-0.033,0.104l-0.033,0.104l-0.031,0.105l-0.029,0.107l-0.029,0.107l-0.029,0.108l-0.025,0.109l-0.027,0.109l-0.018,0.073
					L363.405,88.063L363.405,88.063z M364.763,84.956c0.426-0.633,0.941-1.235,1.475-1.783l-0.867-0.847
					c-0.58,0.594-1.145,1.259-1.609,1.948L364.763,84.956L364.763,84.956z M367.083,82.348c0.584-0.545,1.191-1.068,1.797-1.593
					l-0.793-0.916c-0.615,0.534-1.232,1.065-1.828,1.621L367.083,82.348L367.083,82.348z M369.796,79.954
					c0.617-0.547,1.223-1.106,1.795-1.699l-0.875-0.839c-0.549,0.569-1.131,1.106-1.723,1.633L369.796,79.954L369.796,79.954z
					 M372.431,77.332c0.412-0.478,0.797-0.988,1.148-1.511l0.127-0.191c0.07-0.111,0.141-0.221,0.209-0.333l-1.037-0.626
					c-0.398,0.654-0.869,1.295-1.369,1.875L372.431,77.332L372.431,77.332z M374.524,74.188l0.098-0.202l0.051-0.11l0.051-0.111
					l0.051-0.112l0.049-0.113l0.047-0.114l0.049-0.114l0.047-0.116l0.047-0.117l0.045-0.118l0.043-0.119l0.045-0.12l0.041-0.121
					l0.041-0.122l0.041-0.123l0.041-0.123l0.039-0.125l0.039-0.126l0.043-0.155l-1.166-0.325l-0.039,0.135l-0.035,0.115
					l-0.035,0.114l-0.037,0.113l-0.037,0.113l-0.076,0.221l-0.041,0.11l-0.039,0.108l-0.043,0.107l-0.041,0.107l-0.043,0.105
					l-0.043,0.105l-0.045,0.104l-0.045,0.103l-0.045,0.102l-0.094,0.202l-0.092,0.192L374.524,74.188L374.524,74.188z
					 M375.727,70.604l0.041-0.212l0.025-0.14l0.023-0.141l0.023-0.142l0.023-0.143l0.021-0.145l0.02-0.146l0.018-0.146l0.02-0.148
					l0.016-0.149l0.016-0.15l0.016-0.152l0.012-0.153l0.014-0.154l0.01-0.155l0.014-0.211l-1.209-0.062l-0.014,0.192l-0.01,0.146
					l-0.01,0.144l-0.014,0.144l-0.014,0.142l-0.014,0.14l-0.018,0.14l-0.016,0.138l-0.018,0.137l-0.02,0.135l-0.018,0.134
					l-0.022,0.133l-0.021,0.132l-0.023,0.131l-0.023,0.129l-0.037,0.202L375.727,70.604L375.727,70.604z M376.071,66.871
					l-1.211,0.011c-0.004-0.79-0.055-1.55-0.168-2.332l1.199-0.176C376.013,65.209,376.067,66.027,376.071,66.871L376.071,66.871z
					 M375.669,63.141c-0.172-0.808-0.414-1.632-0.699-2.406l-1.137,0.422c0.266,0.723,0.49,1.489,0.652,2.243L375.669,63.141
					L375.669,63.141z M374.501,59.575c-0.34-0.764-0.727-1.499-1.16-2.213l-1.033,0.632c0.408,0.67,0.77,1.359,1.088,2.076
					L374.501,59.575L374.501,59.575z M372.655,56.314c-0.48-0.683-0.996-1.331-1.561-1.948l-0.893,0.817
					c0.529,0.582,1.012,1.189,1.465,1.831L372.655,56.314L372.655,56.314z M370.224,53.469c-0.596-0.578-1.24-1.123-1.908-1.617
					l-0.717,0.976c0.625,0.464,1.225,0.972,1.785,1.514L370.224,53.469L370.224,53.469z M367.288,51.142
					c-0.705-0.452-1.438-0.856-2.197-1.208l-0.502,1.102c0.705,0.326,1.391,0.706,2.045,1.127L367.288,51.142L367.288,51.142z
					 M363.936,49.447c-0.785-0.298-1.58-0.535-2.4-0.718l-0.262,1.183c0.766,0.172,1.502,0.391,2.236,0.67L363.936,49.447z"/>
				<path style="fill-rule:evenodd;clip-rule:evenodd;fill:#CFDDEB;" d="M210.756,192.396c-1.343-0.318-2.692-0.465-4.071-0.457
					l0.017,1.938c1.226-0.007,2.42,0.124,3.613,0.406L210.756,192.396L210.756,192.396z M207.587,239.14
					c-1.168,0.017-2.301,0.276-3.319,0.857l0.966,1.68c0.724-0.411,1.538-0.587,2.365-0.599l0.031-0.001
					c0.25-0.002,0.485,0.018,0.731,0.057l0.061,0.01c0.017,0.004,0.034,0.007,0.051,0.01c0.051,0.01,0.1,0.021,0.149,0.034l0,0
					l0.014,0.003l0,0l0.016,0.004h-0.001l0.011,0.003h-0.001l0.045,0.012c0.659,0.18,1.21,0.517,1.674,1.018l1.418-1.321
					c-0.711-0.768-1.579-1.294-2.588-1.568l-0.093-0.024l0.001,0.001c-0.123-0.032-0.254-0.06-0.379-0.082h-0.004
					c0.8-0.191,1.537-0.566,2.145-1.17c0.295-0.295,0.535-0.619,0.744-0.982l-1.687-0.955c-0.521,0.924-1.39,1.284-2.419,1.321
					L207.587,239.14L207.587,239.14z M202.527,241.536c-0.825,1.112-1.176,2.438-1.166,3.813c0.003,0.177,0.01,0.352,0.026,0.526
					l1.929-0.189c-0.012-0.116-0.016-0.236-0.018-0.354c-0.006-0.954,0.215-1.872,0.79-2.647L202.527,241.536L202.527,241.536z
					 M202.047,248.087c0.018,0.033,0.037,0.065,0.055,0.099c0.769,1.34,1.994,2.259,3.455,2.732l0.585-1.849
					c-0.937-0.3-1.753-0.874-2.279-1.714c-0.038-0.062-0.076-0.126-0.109-0.19L202.047,248.087L202.047,248.087z M207.803,251.222
					c1.437-0.056,2.773-0.578,3.809-1.584c0.105-0.104,0.208-0.211,0.305-0.324l-1.467-1.267c-0.055,0.069-0.132,0.145-0.195,0.207
					c-0.693,0.672-1.58,0.995-2.536,1.032L207.803,251.222L207.803,251.222z M210.254,248.254l1.357,1.384L210.254,248.254
					L210.254,248.254z M213.053,247.322c0.259-0.75,0.38-1.523,0.364-2.316c-0.019-0.737-0.155-1.451-0.417-2.141l-1.812,0.689
					c0.182,0.48,0.278,0.984,0.291,1.498c0.013,0.558-0.077,1.113-0.259,1.641L213.053,247.322L213.053,247.322z M206.663,191.939
					l0.022,1.938c-1.209,0.01-2.443,0.178-3.616,0.468l-0.463-1.882C203.928,192.139,205.301,191.951,206.663,191.939
					L206.663,191.939z M200.658,193.046c-1.27,0.451-2.487,1.01-3.671,1.658l0.932,1.699c1.093-0.597,2.213-1.113,3.386-1.53
					L200.658,193.046L200.658,193.046z M195.27,195.965c-1.025,0.873-1.982,1.809-2.859,2.831l1.474,1.259
					c0.81-0.945,1.697-1.81,2.645-2.617L195.27,195.965L195.27,195.965z M191.164,200.4c-0.785,1.124-1.448,2.314-1.964,3.587
					l1.8,0.722c0.454-1.13,1.056-2.201,1.752-3.198L191.164,200.4L191.164,200.4z M188.55,205.936
					c-0.354,1.335-0.535,2.686-0.558,4.066l1.938,0.028c0.021-1.224,0.179-2.413,0.492-3.596L188.55,205.936L188.55,205.936z
					 M188.374,212.31c0.677,1.525,2.099,2.33,3.646,2.761l0.511-1.87c-0.335-0.09-0.672-0.212-0.986-0.361
					c-0.609-0.296-1.121-0.691-1.4-1.322L188.374,212.31L188.374,212.31z M194.528,214.929c0.729-0.291,1.396-0.796,1.946-1.35
					c0.296-0.296,0.569-0.617,0.824-0.95l0.137-0.18l0.187-0.957l-1.902-0.37l-0.098,0.504c-0.485,0.602-1.118,1.224-1.827,1.508
					L194.528,214.929L194.528,214.929z M197.992,209.59l-1.902-0.369l0.496-2.551c0.254-0.488,0.516-0.96,0.809-1.426l1.639,1.037
					c-0.213,0.338-0.412,0.684-0.599,1.037L197.992,209.59L197.992,209.59z M200.094,204.829c0.766-0.893,1.645-1.635,2.7-2.163
					l-0.856-1.739c-1.289,0.64-2.383,1.552-3.316,2.641L200.094,204.829L200.094,204.829z M204.407,202.081
					c0.641-0.152,1.279-0.223,1.938-0.229c0.518-0.004,1.017,0.036,1.528,0.117h-0.001l0.323-1.912
					c-0.613-0.104-1.246-0.148-1.868-0.144c-0.804,0.009-1.584,0.097-2.365,0.282L204.407,202.081L204.407,202.081z
					 M209.567,202.415c1.108,0.409,2.114,1.011,2.997,1.795l1.291-1.445c-1.063-0.945-2.278-1.675-3.613-2.167L209.567,202.415
					L209.567,202.415z M213.748,205.493c0.695,0.918,1.208,1.986,1.465,3.111l1.892-0.425c-0.323-1.401-0.942-2.706-1.809-3.854
					L213.748,205.493L213.748,205.493z M215.417,210.322l1.937-0.018v0.141v0.13l-0.002,0.129l-0.004,0.129l-0.004,0.127
					l-0.006,0.126l-0.008,0.126l-0.008,0.124l-0.009,0.124l-0.012,0.122l-0.012,0.122l-0.014,0.12l-0.014,0.121l-0.017,0.119
					l-0.016,0.118l-0.019,0.117l-0.02,0.117l-0.02,0.116l-0.021,0.114l-0.023,0.114l-0.023,0.112l-0.025,0.112l-0.025,0.112
					l-0.027,0.109l-0.029,0.11l-0.029,0.108l-0.03,0.106l-0.031,0.107l-0.032,0.106l-0.034,0.104l-0.035,0.105l-0.035,0.102
					l-0.037,0.104l-0.037,0.101l-0.039,0.101l-0.048,0.12l-1.789-0.745l0,0c0.031-0.08,0.063-0.16,0.092-0.241l0.059-0.164
					l0.055-0.168l0.052-0.17l0.025-0.087l0.023-0.087l0.023-0.087l0.021-0.089l0.021-0.089l0.02-0.09l0.02-0.091l0.018-0.092
					l0.019-0.093l0.017-0.095l0.016-0.095l0.015-0.095l0.015-0.098l0.012-0.097l0.012-0.1l0.012-0.1l0.01-0.102l0.01-0.102
					l0.008-0.104l0.007-0.105l0.005-0.104l0.006-0.106l0.004-0.108l0.003-0.108l0.001-0.11l0.001-0.111V210.322L215.417,210.322z
					 M213.999,215.262c-0.67,0.993-1.563,1.874-2.46,2.664l1.282,1.454c1.021-0.902,2.013-1.891,2.778-3.024L213.999,215.262
					L213.999,215.262z M210.083,219.167c-1.018,0.852-2.025,1.704-2.955,2.655l1.389,1.351c0.881-0.901,1.845-1.713,2.81-2.521
					L210.083,219.167L210.083,219.167z M205.775,223.364c-0.255,0.33-0.493,0.663-0.723,1.011l-0.127,0.198l-0.063,0.1
					c-0.063,0.102-0.124,0.203-0.185,0.306l-0.061,0.104l-0.06,0.104l-0.117,0.212l-0.058,0.108l-0.057,0.107l-0.056,0.11
					l-0.056,0.109l-0.056,0.112l-0.054,0.113l-0.053,0.112l-0.053,0.114l-0.052,0.116l-0.051,0.116l-0.05,0.117l-0.05,0.118
					l-0.08,0.201l1.804,0.706c0.05-0.125,0.102-0.247,0.154-0.372l0.044-0.101l0.045-0.098c0.045-0.099,0.091-0.196,0.138-0.294
					c0.4-0.811,0.857-1.534,1.41-2.249L205.775,223.364L205.775,223.364z M203.093,228.929l-0.029,0.126l-0.032,0.139L203,229.333
					l-0.03,0.141l-0.028,0.141l-0.027,0.143l-0.027,0.144l-0.025,0.145l-0.024,0.147l-0.023,0.147l-0.022,0.149l-0.022,0.15
					l-0.019,0.151l-0.02,0.153l-0.019,0.153l-0.018,0.156l-0.015,0.156l-0.016,0.157l-0.013,0.158l-0.013,0.161l-0.011,0.161
					l-0.011,0.163l-0.008,0.165l-0.008,0.165l-0.006,0.166l-0.008,0.264l1.938,0.038l0.007-0.234l0.006-0.152l0.007-0.15
					l0.008-0.149l0.009-0.148l0.01-0.146l0.012-0.146l0.012-0.143l0.014-0.142l0.014-0.141l0.016-0.14l0.017-0.138l0.017-0.137
					l0.019-0.135l0.02-0.134l0.02-0.133l0.02-0.132l0.023-0.13l0.022-0.13l0.024-0.128l0.024-0.127l0.025-0.124l0.026-0.125
					l0.027-0.123l0.027-0.122l0.03-0.126L203.093,228.929L203.093,228.929z M202.595,234.957l1.938-0.059
					c0.028,1.074,0.639,1.676,1.573,2.108l-0.802,1.764C203.692,238.034,202.643,236.775,202.595,234.957L202.595,234.957z
					 M212.354,234.94c0.025-0.144,0.046-0.287,0.064-0.433l-0.001-0.186l0.001-0.115l0.003-0.113l0.002-0.112l0.004-0.112
					l0.005-0.111l0.006-0.108l0.008-0.109l0.008-0.107l0.009-0.105l0.011-0.105l0.01-0.104l0.012-0.103l0.014-0.103l0.014-0.1
					l0.016-0.101l0.016-0.1l0.017-0.097l0.019-0.098l0.018-0.096l0.02-0.096l0.02-0.094l0.021-0.094l0.022-0.093l0.023-0.092
					l0.024-0.091l0.024-0.09l0.025-0.089l0.055-0.178l0.044-0.135l-1.836-0.624l-0.023,0.068l-0.034,0.107l-0.033,0.108
					l-0.032,0.109l-0.032,0.11l-0.03,0.111l-0.029,0.112l-0.028,0.112l-0.027,0.114l-0.025,0.115l-0.025,0.115l-0.023,0.117
					l-0.023,0.117l-0.021,0.118l-0.02,0.119l-0.019,0.12l-0.019,0.12l-0.017,0.122l-0.016,0.122l-0.015,0.123l-0.013,0.124
					l-0.013,0.125l-0.011,0.127l-0.01,0.127l-0.008,0.127l-0.007,0.129l-0.006,0.13l-0.005,0.131l-0.003,0.131l-0.002,0.133
					l-0.001,0.194c-0.01,0.077-0.023,0.153-0.036,0.229L212.354,234.94L212.354,234.94z M213.602,229.69
					c0.616-1.053,1.406-1.944,2.281-2.788l-1.344-1.396c-0.682,0.657-1.306,1.334-1.874,2.093c-0.208,0.282-0.399,0.563-0.585,0.861
					l-0.056,0.09l-0.09,0.153L213.602,229.69L213.602,229.69z M217.283,225.629c0.987-0.862,1.989-1.706,2.928-2.622l-1.354-1.384
					c-0.911,0.888-1.89,1.71-2.849,2.546L217.283,225.629L217.283,225.629z M221.6,221.535c0.525-0.607,1.003-1.261,1.432-1.94
					c0.063-0.101,0.124-0.202,0.184-0.305l0.062-0.102l0.06-0.105l0.117-0.21l0.059-0.106l0.057-0.108l0.057-0.108l0.056-0.11
					l0.055-0.11l0.056-0.111l0.066-0.141l-1.759-0.813c-0.505,1.077-1.197,2.111-1.974,3.011L221.6,221.535L221.6,221.535z
					 M224.602,216.141l0.065-0.216l0.037-0.132l0.035-0.132l0.036-0.133l0.034-0.134l0.032-0.135l0.033-0.136l0.031-0.137
					l0.029-0.139l0.029-0.139l0.028-0.141l0.026-0.141l0.026-0.143l0.024-0.144l0.024-0.145l0.022-0.146l0.021-0.147l0.021-0.149
					l0.018-0.149l0.019-0.151l0.018-0.152l0.016-0.153l0.015-0.154l0.015-0.155l0.012-0.157l0.011-0.157l0.014-0.217l-1.936-0.1
					l-0.012,0.187l-0.01,0.143l-0.012,0.141l-0.012,0.14l-0.014,0.139l-0.014,0.137l-0.016,0.136l-0.016,0.135l-0.018,0.134
					l-0.019,0.132l-0.019,0.132l-0.02,0.13l-0.021,0.129l-0.021,0.127l-0.023,0.127l-0.023,0.124l-0.025,0.125l-0.025,0.123
					l-0.026,0.121l-0.027,0.121l-0.028,0.12l-0.029,0.118l-0.029,0.118l-0.03,0.116l-0.032,0.116l-0.032,0.114l-0.06,0.201
					L224.602,216.141L224.602,216.141z M225.313,210.068c-0.063-1.374-0.275-2.707-0.64-4.033l-1.868,0.518
					c0.327,1.188,0.516,2.379,0.571,3.609L225.313,210.068L225.313,210.068z M224.023,204.1c-0.501-1.264-1.138-2.475-1.889-3.607
					l-1.613,1.075c0.678,1.023,1.25,2.109,1.702,3.249L224.023,204.1L224.023,204.1z M220.923,198.855
					c-0.863-1.051-1.832-2.009-2.891-2.862l-1.211,1.514c0.954,0.767,1.831,1.637,2.607,2.584L220.923,198.855L220.923,198.855z
					 M216.377,194.801c-1.154-0.741-2.369-1.345-3.656-1.817l-0.659,1.823c1.151,0.421,2.239,0.964,3.271,1.628L216.377,194.801z"/>
				<path style="fill-rule:evenodd;clip-rule:evenodd;fill:#CFDDEB;" d="M442.93,171.765c0.938-0.122,1.861-0.181,2.807-0.183
					v-1.454h-0.147c-0.877,0.008-1.732,0.062-2.605,0.164l-0.238,0.031L442.93,171.765L442.93,171.765z M445.879,171.582
					c0.945,0.009,1.869,0.074,2.807,0.202l0.201-1.44c-0.133-0.017-0.266-0.035-0.398-0.052c-0.867-0.101-1.719-0.156-2.592-0.164
					L445.879,171.582L445.879,171.582z M450.068,172.023c0.922,0.192,1.816,0.441,2.707,0.751l0.482-1.371
					c-0.949-0.331-1.906-0.598-2.891-0.803L450.068,172.023L450.068,172.023z M454.084,173.282c0.859,0.367,1.701,0.794,2.504,1.272
					l0.748-1.247c-0.859-0.511-1.758-0.968-2.678-1.36L454.084,173.282L454.084,173.282z M457.771,175.311
					c0.772,0.532,1.512,1.112,2.205,1.741l0.978-1.076c-0.744-0.671-1.531-1.291-2.355-1.859L457.771,175.311L457.771,175.311z
					 M460.99,178.026c0.652,0.672,1.262,1.386,1.822,2.139l1.17-0.863c-0.598-0.803-1.25-1.568-1.947-2.285L460.99,178.026
					L460.99,178.026z M463.613,181.319c0.508,0.786,0.967,1.608,1.365,2.454l1.316-0.615c-0.426-0.906-0.914-1.782-1.457-2.623
					L463.613,181.319L463.613,181.319z M465.537,185.063c0.094,0.239,0.184,0.48,0.27,0.722c0.225,0.646,0.42,1.29,0.584,1.956
					l1.412-0.345c-0.242-0.977-0.545-1.921-0.91-2.858L465.537,185.063L465.537,185.063z M466.682,189.112
					c0.162,0.926,0.266,1.854,0.307,2.793l1.453-0.056c-0.025-0.585-0.076-1.164-0.145-1.746c-0.029-0.237-0.061-0.473-0.096-0.709
					c-0.027-0.176-0.057-0.352-0.088-0.528L466.682,189.112L466.682,189.112z M467.004,193.312c-0.02,0.932-0.098,1.877-0.242,2.798
					l1.436,0.229c0.039-0.244,0.07-0.489,0.1-0.734c0.09-0.752,0.145-1.498,0.16-2.256L467.004,193.312L467.004,193.312z
					 M466.502,197.494c-0.184,0.826-0.418,1.63-0.695,2.429c-0.031,0.087-0.063,0.176-0.096,0.263l1.363,0.509
					c0.344-0.936,0.631-1.909,0.846-2.883L466.502,197.494L466.502,197.494z M465.184,201.487c-0.387,0.864-0.816,1.682-1.311,2.489
					l1.238,0.762c0.525-0.861,0.984-1.732,1.398-2.652L465.184,201.487L465.184,201.487z M463.098,205.149
					c-0.539,0.765-1.137,1.492-1.771,2.18l1.064,0.991c0.678-0.734,1.314-1.512,1.893-2.328L463.098,205.149L463.098,205.149z
					 M460.336,208.326c-0.682,0.645-1.406,1.241-2.166,1.79l0.85,1.18c0.811-0.588,1.586-1.223,2.313-1.913L460.336,208.326
					L460.336,208.326z M457.004,210.9c-0.795,0.498-1.621,0.94-2.475,1.329l0.6,1.325c0.912-0.415,1.795-0.888,2.645-1.42
					L457.004,210.9L457.004,210.9z M453.232,212.768c-0.141,0.053-0.283,0.105-0.426,0.156c-0.75,0.261-1.492,0.477-2.264,0.658
					l0.326,1.416c0.98-0.23,1.93-0.513,2.871-0.868L453.232,212.768L453.232,212.768z M449.166,213.852
					c-0.924,0.15-1.861,0.238-2.797,0.266l0.037,1.453c0.699-0.02,1.387-0.073,2.082-0.155c0.236-0.029,0.473-0.061,0.709-0.096
					l0.197-0.032L449.166,213.852L449.166,213.852z M444.963,214.112c-0.934-0.031-1.875-0.128-2.795-0.284l-0.246,1.432
					c0.117,0.021,0.236,0.04,0.355,0.058c0.236,0.035,0.471,0.067,0.707,0.096c0.641,0.075,1.279,0.128,1.922,0.15L444.963,214.112
					L444.963,214.112z M440.793,213.549c-0.725-0.174-1.422-0.38-2.125-0.625c-0.188-0.067-0.375-0.135-0.561-0.206l-0.525,1.355
					c0.939,0.36,1.889,0.653,2.865,0.888L440.793,213.549L440.793,213.549z M436.814,212.17c-0.848-0.393-1.678-0.843-2.465-1.346
					l-0.785,1.225c0.844,0.537,1.727,1.018,2.635,1.439L436.814,212.17L436.814,212.17z M433.189,210.033
					c-0.756-0.554-1.479-1.155-2.154-1.805l-1.01,1.047c0.723,0.693,1.492,1.335,2.299,1.928L433.189,210.033L433.189,210.033z
					 M430.053,207.224c-0.635-0.692-1.223-1.422-1.76-2.191l-1.193,0.828c0.572,0.821,1.201,1.602,1.877,2.341L430.053,207.224
					L430.053,207.224z M427.527,203.855c-0.488-0.807-0.914-1.63-1.293-2.493l-1.336,0.574c0.398,0.918,0.863,1.809,1.381,2.666
					L427.527,203.855L427.527,203.855z M425.713,200.053l-0.047-0.13c-0.293-0.846-0.537-1.692-0.725-2.568l-1.422,0.301
					c0.209,0.978,0.486,1.948,0.826,2.889L425.713,200.053L425.713,200.053z M424.691,195.971c-0.137-0.93-0.211-1.861-0.225-2.8
					l-1.453,0.018c0.014,0.813,0.068,1.608,0.162,2.416c0.023,0.192,0.049,0.384,0.076,0.576L424.691,195.971L424.691,195.971z
					 M424.492,191.763c0.039-0.925,0.16-1.878,0.324-2.789l-1.428-0.265c-0.043,0.229-0.08,0.456-0.117,0.685
					c-0.033,0.237-0.066,0.472-0.096,0.709c-0.063,0.524-0.113,1.059-0.135,1.587L424.492,191.763L424.492,191.763z
					 M425.117,187.602c0.156-0.616,0.34-1.217,0.549-1.817c0.104-0.287,0.209-0.568,0.322-0.851v0.001l-1.348-0.55
					c-0.373,0.917-0.686,1.896-0.932,2.855L425.117,187.602L425.117,187.602z M426.555,183.645c0.404-0.843,0.871-1.663,1.383-2.444
					l-1.215-0.799c-0.547,0.835-1.047,1.712-1.477,2.613L426.555,183.645L426.555,183.645z M428.746,180.051
					c0.564-0.749,1.182-1.458,1.838-2.126l-1.035-1.022c-0.701,0.714-1.359,1.471-1.961,2.271L428.746,180.051L428.746,180.051z
					 M431.602,176.956c0.701-0.624,1.443-1.198,2.217-1.726l-0.813-1.204c-0.828,0.563-1.621,1.176-2.369,1.843L431.602,176.956
					L431.602,176.956z M435.008,174.481c0.809-0.474,1.648-0.892,2.512-1.255l-0.559-1.342c-0.922,0.387-1.822,0.835-2.685,1.341
					L435.008,174.481L435.008,174.481z M438.832,172.727c0.893-0.305,1.791-0.546,2.713-0.732l-0.283-1.426
					c-0.984,0.198-1.945,0.456-2.895,0.782L438.832,172.727z"/>
			</g>
			<g>
				<path style="fill-rule:evenodd;clip-rule:evenodd;fill:#CFDDEB;" d="M101.402,103.475c0.231,0,0.462,0.009,0.689,0.027
					c-0.022-0.312-0.034-0.627-0.034-0.944c0-7.167,5.811-12.977,12.977-12.977c6.152,0,11.306,4.282,12.64,10.027
					c1.448-1.188,3.3-1.9,5.318-1.9c3.785,0,6.985,2.508,8.029,5.953c0.582-0.121,1.184-0.186,1.802-0.186
					c4.851,0,8.782,3.932,8.782,8.783c0,4.85-3.932,8.782-8.782,8.782h-40.766v-0.025c-0.217,0.017-0.435,0.025-0.655,0.025
					c-4.85,0-8.782-3.932-8.782-8.782C92.62,107.407,96.552,103.475,101.402,103.475z"/>
				<path style="fill-rule:evenodd;clip-rule:evenodd;fill:#AACBEC;" d="M70.377,118.259c0.281,0,0.56,0.011,0.835,0.033
					c-0.026-0.378-0.042-0.758-0.042-1.143c0-8.668,7.026-15.693,15.693-15.693c7.44,0,13.673,5.178,15.287,12.127
					c1.75-1.436,3.989-2.299,6.431-2.299c4.578,0,8.448,3.033,9.711,7.199c0.703-0.147,1.432-0.224,2.178-0.224
					c5.866,0,10.621,4.755,10.621,10.621c0,5.866-4.755,10.621-10.621,10.621h-49.3v-0.03c-0.262,0.02-0.525,0.03-0.793,0.03
					c-5.865,0-10.621-4.755-10.621-10.621C59.756,123.014,64.512,118.259,70.377,118.259z"/>
			</g>
			<g>
				<path style="fill-rule:evenodd;clip-rule:evenodd;fill:#AACBEC;" d="M416.774,138.244c0.234,0,0.463,0.009,0.691,0.026
					c-0.023-0.312-0.035-0.626-0.035-0.944c0-7.167,5.81-12.977,12.977-12.977c6.154,0,11.305,4.282,12.641,10.027
					c1.447-1.188,3.299-1.9,5.318-1.9c3.785,0,6.984,2.507,8.029,5.953c0.582-0.121,1.184-0.185,1.803-0.185
					c4.85,0,8.781,3.932,8.781,8.782c0,4.85-3.932,8.782-8.781,8.782h-40.767v-0.024c-0.215,0.016-0.434,0.024-0.656,0.024
					c-4.85,0-8.781-3.932-8.781-8.782C407.993,142.176,411.925,138.244,416.774,138.244z"/>
				<path style="fill-rule:evenodd;clip-rule:evenodd;fill:#98B1D2;" d="M428.657,122.328c-0.359,0-0.711,0.015-1.063,0.041
					c0.035-0.48,0.053-0.965,0.053-1.454c0-11.031-8.943-19.974-19.973-19.974c-9.469,0-17.4,6.59-19.455,15.435
					c-2.229-1.828-5.078-2.925-8.186-2.925c-5.826,0-10.752,3.86-12.357,9.162c-0.896-0.187-1.824-0.286-2.773-0.286
					c-7.465,0-13.518,6.052-13.518,13.517c0,7.466,6.053,13.518,13.518,13.518h62.744v-0.038c0.334,0.025,0.67,0.038,1.01,0.038
					c7.465,0,13.518-6.052,13.518-13.518C442.175,128.38,436.122,122.328,428.657,122.328z"/>
			</g>
		</g>
	</g>
</g>
</svg>
